<svg width="23" height="22" viewBox="0 0 23 22" fill="none" xmlns="http://www.w3.org/2000/svg">
<path d="M11.6196 12.2856C12.7704 12.2856 13.7525 11.8789 14.566 11.0654C15.3795 10.2519 15.7862 9.26975 15.7862 8.11895C15.7862 6.96816 15.3795 5.98602 14.566 5.17253C13.7525 4.35903 12.7704 3.95229 11.6196 3.95229C10.4688 3.95229 9.48662 4.35903 8.67313 5.17253C7.85964 5.98602 7.45289 6.96816 7.45289 8.11895C7.45289 9.26975 7.85964 10.2519 8.67313 11.0654C9.48662 11.8789 10.4688 12.2856 11.6196 12.2856ZM3.28623 21.8094C2.63146 21.8094 2.07095 21.5763 1.60468 21.11C1.13841 20.6438 0.905273 20.0832 0.905273 19.4285V2.76181C0.905273 2.10705 1.13841 1.54653 1.60468 1.08026C2.07095 0.613994 2.63146 0.380859 3.28623 0.380859H19.9529C20.6077 0.380859 21.1682 0.613994 21.6344 1.08026C22.1007 1.54653 22.3338 2.10705 22.3338 2.76181V19.4285C22.3338 20.0832 22.1007 20.6438 21.6344 21.11C21.1682 21.5763 20.6077 21.8094 19.9529 21.8094H3.28623ZM3.28623 18.4642C3.28623 18.9967 3.71797 19.4285 4.25055 19.4285H18.9886C19.5212 19.4285 19.9529 18.9967 19.9529 18.4642C19.9529 18.2053 19.8501 17.9558 19.6593 17.7809C18.6559 16.8605 17.5087 16.125 16.2178 15.5743C14.7991 14.9692 13.2664 14.6666 11.6196 14.6666C9.97273 14.6666 8.44 14.9692 7.02135 15.5743C5.73041 16.125 4.58323 16.8605 3.57981 17.7809C3.38903 17.9558 3.28623 18.2053 3.28623 18.4642Z" fill="currentColor"/>
</svg>
