<svg width="22" height="22" viewBox="0 0 22 22" fill="none" xmlns="http://www.w3.org/2000/svg">
<path d="M11 12.2222C12.1815 12.2222 13.1898 11.8046 14.025 10.9694C14.8602 10.1343 15.2778 9.12593 15.2778 7.94444C15.2778 6.76296 14.8602 5.75463 14.025 4.91944C13.1898 4.08426 12.1815 3.66667 11 3.66667C9.81852 3.66667 8.81019 4.08426 7.975 4.91944C7.13981 5.75463 6.72222 6.76296 6.72222 7.94444C6.72222 9.12593 7.13981 10.1343 7.975 10.9694C8.81019 11.8046 9.81852 12.2222 11 12.2222ZM2.44444 22C1.77222 22 1.19676 21.7606 0.718056 21.2819C0.239352 20.8032 0 20.2278 0 19.5556V2.44444C0 1.77222 0.239352 1.19676 0.718056 0.718056C1.19676 0.239352 1.77222 0 2.44444 0H19.5556C20.2278 0 20.8032 0.239352 21.2819 0.718056C21.7606 1.19676 22 1.77222 22 2.44444V19.5556C22 20.2278 21.7606 20.8032 21.2819 21.2819C20.8032 21.7606 20.2278 22 19.5556 22H2.44444ZM2.44444 18.5655C2.44444 19.1123 2.8877 19.5556 3.43448 19.5556H18.5655C19.1123 19.5556 19.5556 19.1123 19.5556 18.5655C19.5556 18.2997 19.45 18.0436 19.2541 17.864C18.224 16.9191 17.0462 16.164 15.7208 15.5986C14.2644 14.9773 12.6907 14.6667 11 14.6667C9.30926 14.6667 7.73565 14.9773 6.27917 15.5986C4.9538 16.164 3.77603 16.9191 2.74586 17.864C2.54999 18.0436 2.44444 18.2997 2.44444 18.5655Z" fill="currentColor"/>
</svg>
