<svg width="16" height="17" viewBox="0 0 16 17" fill="none" xmlns="http://www.w3.org/2000/svg">
<path d="M12.3964 9.5068H1.1988C0.914893 9.5068 0.676913 9.41103 0.484859 9.21947C0.292804 9.02792 0.196777 8.79056 0.196777 8.50739C0.196777 8.22422 0.292804 7.98686 0.484859 7.7953C0.676913 7.60375 0.914893 7.50797 1.1988 7.50797H12.3964L7.48649 2.61084C7.28608 2.41096 7.19005 2.17776 7.1984 1.91125C7.20676 1.64474 7.31113 1.41154 7.51154 1.21166C7.71194 1.02843 7.94575 0.932656 8.21295 0.924328C8.48016 0.915999 8.71396 1.01178 8.91437 1.21166L15.5277 7.8078C15.6279 7.90774 15.6989 8.01601 15.7406 8.13261C15.7824 8.24921 15.8033 8.37413 15.8033 8.50739C15.8033 8.64064 15.7824 8.76557 15.7406 8.88217C15.6989 8.99877 15.6279 9.10704 15.5277 9.20698L8.91437 15.8031C8.73066 15.9863 8.50103 16.078 8.22548 16.078C7.94992 16.078 7.71194 15.9863 7.51154 15.8031C7.31113 15.6032 7.21093 15.3659 7.21093 15.091C7.21093 14.8162 7.31113 14.5788 7.51154 14.379L12.3964 9.5068Z" fill="currentColor"/>
</svg>
