<svg width="16" height="17" viewBox="0 0 16 17" fill="none" xmlns="http://www.w3.org/2000/svg">
<path d="M3.60361 9.5068H14.8012C15.0851 9.5068 15.3231 9.41103 15.5151 9.21947C15.7072 9.02792 15.8032 8.79056 15.8032 8.50739C15.8032 8.22422 15.7072 7.98686 15.5151 7.7953C15.3231 7.60375 15.0851 7.50797 14.8012 7.50797H3.60361L8.51351 2.61084C8.71392 2.41096 8.80995 2.17776 8.8016 1.91125C8.79324 1.64474 8.68887 1.41154 8.48846 1.21166C8.28806 1.02843 8.05425 0.932656 7.78705 0.924328C7.51984 0.915999 7.28604 1.01178 7.08563 1.21166L0.472289 7.8078C0.372087 7.90774 0.301111 8.01601 0.25936 8.13261C0.217608 8.24921 0.196733 8.37413 0.196733 8.50739C0.196733 8.64064 0.217608 8.76557 0.25936 8.88217C0.301111 8.99877 0.372087 9.10704 0.472289 9.20698L7.08563 15.8031C7.26934 15.9863 7.49897 16.078 7.77452 16.078C8.05008 16.078 8.28806 15.9863 8.48846 15.8031C8.68887 15.6032 8.78907 15.3659 8.78907 15.091C8.78907 14.8162 8.68887 14.5788 8.48846 14.379L3.60361 9.5068Z" fill="currentColor"/>
</svg>
