<svg width="31" height="41" viewBox="0 0 31 41" fill="none" xmlns="http://www.w3.org/2000/svg">
<path d="M1.969 26.8716C1.49233 25.8928 1.12833 24.8742 0.877 23.8158C0.625666 22.7578 0.5 21.6857 0.5 20.5994C0.5 16.4382 1.96033 12.8953 4.881 9.97082C7.80133 7.0463 11.341 5.58404 15.5 5.58404H18.273L14.073 1.40757L15.4885 0L22.104 6.57844L15.4885 13.1569L14.073 11.7493L18.273 7.57283H15.5C11.8847 7.57283 8.81417 8.83688 6.2885 11.365C3.76283 13.8931 2.5 16.9712 2.5 20.5994C2.5 21.3847 2.58083 22.1853 2.7425 23.0014C2.90383 23.8171 3.146 24.61 3.469 25.38L1.969 26.8716ZM15.5115 41L8.896 34.4216L15.5115 27.8431L16.927 29.2507L12.727 33.4272H15.5C19.1153 33.4272 22.1858 32.1631 24.7115 29.635C27.2372 27.1069 28.5 24.0288 28.5 20.4006C28.5 19.6153 28.4192 18.8147 28.2575 17.9986C28.0962 17.1829 27.854 16.39 27.531 15.62L29.031 14.1284C29.5077 15.1072 29.8717 16.1258 30.123 17.1842C30.3743 18.2422 30.5 19.3143 30.5 20.4006C30.5 24.5618 29.0397 28.1047 26.119 31.0292C23.1987 33.9537 19.659 35.416 15.5 35.416H12.727L16.927 39.5924L15.5115 41Z" fill="currentColor"/>
</svg>
