<svg width="23" height="26" viewBox="0 0 23 26" fill="none" xmlns="http://www.w3.org/2000/svg">
<path d="M3.04794 25.8086C2.39318 25.8086 1.83267 25.5755 1.3664 25.1092C0.900127 24.6429 0.666992 24.0824 0.666992 23.4276V9.14193C0.666992 8.48716 0.900127 7.92665 1.3664 7.46038C1.83267 6.99411 2.39318 6.76097 3.04794 6.76097H5.4289C5.4289 5.11415 6.00925 3.71038 7.16997 2.54967C8.33068 1.38895 9.73445 0.808594 11.3813 0.808594C13.0281 0.808594 14.4319 1.38895 15.5926 2.54967C16.7533 3.71038 17.3337 5.11415 17.3337 6.76097H19.7146C20.3694 6.76097 20.9299 6.99411 21.3962 7.46038C21.8624 7.92665 22.0956 8.48716 22.0956 9.14193V23.4276C22.0956 24.0824 21.8624 24.6429 21.3962 25.1092C20.9299 25.5755 20.3694 25.8086 19.7146 25.8086H3.04794ZM11.3813 16.2848C13.0281 16.2848 14.4319 15.7044 15.5926 14.5437C16.7533 13.383 17.3337 11.9792 17.3337 10.3324H14.9527C14.9527 11.3245 14.6055 12.1677 13.911 12.8622C13.2166 13.5566 12.3733 13.9038 11.3813 13.9038C10.3892 13.9038 9.54596 13.5566 8.85152 12.8622C8.15707 12.1677 7.80985 11.3245 7.80985 10.3324H5.4289C5.4289 11.9792 6.00925 13.383 7.16997 14.5437C8.33068 15.7044 9.73445 16.2848 11.3813 16.2848ZM7.80985 6.76097H14.9527C14.9527 5.76891 14.6055 4.92566 13.911 4.23121C13.2166 3.53677 12.3733 3.18955 11.3813 3.18955C10.3892 3.18955 9.54596 3.53677 8.85152 4.23121C8.15707 4.92566 7.80985 5.76891 7.80985 6.76097Z" fill="currentColor"/>
</svg>
