<svg width="16" height="16" viewBox="0 0 16 16" fill="none" xmlns="http://www.w3.org/2000/svg">
<path d="M4.88301 11.6055L7.58301 8.90547L10.283 11.6055L11.333 10.5555L8.63301 7.85547L11.333 5.15547L10.283 4.10547L7.58301 6.80547L4.88301 4.10547L3.83301 5.15547L6.53301 7.85547L3.83301 10.5555L4.88301 11.6055ZM7.58301 15.3555C6.54551 15.3555 5.57051 15.1586 4.65801 14.7648C3.74551 14.3711 2.95176 13.8367 2.27676 13.1617C1.60176 12.4867 1.06738 11.693 0.673633 10.7805C0.279883 9.86797 0.0830078 8.89297 0.0830078 7.85547C0.0830078 6.81797 0.279883 5.84297 0.673633 4.93047C1.06738 4.01797 1.60176 3.22422 2.27676 2.54922C2.95176 1.87422 3.74551 1.33984 4.65801 0.946094C5.57051 0.552344 6.54551 0.355469 7.58301 0.355469C8.62051 0.355469 9.59551 0.552344 10.508 0.946094C11.4205 1.33984 12.2143 1.87422 12.8893 2.54922C13.5643 3.22422 14.0986 4.01797 14.4924 4.93047C14.8861 5.84297 15.083 6.81797 15.083 7.85547C15.083 8.89297 14.8861 9.86797 14.4924 10.7805C14.0986 11.693 13.5643 12.4867 12.8893 13.1617C12.2143 13.8367 11.4205 14.3711 10.508 14.7648C9.59551 15.1586 8.62051 15.3555 7.58301 15.3555ZM7.58301 13.8555C9.25801 13.8555 10.6768 13.2742 11.8393 12.1117C13.0018 10.9492 13.583 9.53047 13.583 7.85547C13.583 6.18047 13.0018 4.76172 11.8393 3.59922C10.6768 2.43672 9.25801 1.85547 7.58301 1.85547C5.90801 1.85547 4.48926 2.43672 3.32676 3.59922C2.16426 4.76172 1.58301 6.18047 1.58301 7.85547C1.58301 9.53047 2.16426 10.9492 3.32676 12.1117C4.48926 13.2742 5.90801 13.8555 7.58301 13.8555Z" fill="currentColor"/>
</svg>
