<svg width="21" height="24" viewBox="0 0 21 24" fill="none" xmlns="http://www.w3.org/2000/svg">
<path d="M2.33333 24C1.69167 24 1.14236 23.7762 0.685417 23.3286C0.228472 22.881 0 22.3429 0 21.7143V8C0 7.37143 0.228472 6.83333 0.685417 6.38571C1.14236 5.9381 1.69167 5.71429 2.33333 5.71429H4.66667C4.66667 4.13333 5.23542 2.78571 6.37292 1.67143C7.51042 0.557143 8.88611 0 10.5 0C12.1139 0 13.4896 0.557143 14.6271 1.67143C15.7646 2.78571 16.3333 4.13333 16.3333 5.71429H18.6667C19.3083 5.71429 19.8576 5.9381 20.3146 6.38571C20.7715 6.83333 21 7.37143 21 8V21.7143C21 22.3429 20.7715 22.881 20.3146 23.3286C19.8576 23.7762 19.3083 24 18.6667 24H2.33333ZM10.5 14.8571C12.1139 14.8571 13.4896 14.3 14.6271 13.1857C15.7646 12.0714 16.3333 10.7238 16.3333 9.14286H14C14 10.0952 13.6597 10.9048 12.9792 11.5714C12.2986 12.2381 11.4722 12.5714 10.5 12.5714C9.52778 12.5714 8.70139 12.2381 8.02083 11.5714C7.34028 10.9048 7 10.0952 7 9.14286H4.66667C4.66667 10.7238 5.23542 12.0714 6.37292 13.1857C7.51042 14.3 8.88611 14.8571 10.5 14.8571ZM7 5.71429H14C14 4.76191 13.6597 3.95238 12.9792 3.28571C12.2986 2.61905 11.4722 2.28571 10.5 2.28571C9.52778 2.28571 8.70139 2.61905 8.02083 3.28571C7.34028 3.95238 7 4.76191 7 5.71429Z" fill="currentColor"/>
</svg>
