<svg width="16" height="17" viewBox="0 0 16 17" fill="none" xmlns="http://www.w3.org/2000/svg">
<path d="M7.91812 16.4544C6.82312 16.4544 5.79389 16.2466 4.83042 15.8311C3.86694 15.4155 3.02889 14.8516 2.31625 14.1392C1.60361 13.4269 1.03937 12.5891 0.623542 11.6261C0.207847 10.663 0 9.63408 0 8.53922C0 7.44422 0.207847 6.41498 0.623542 5.45151C1.0391 4.48804 1.60312 3.64998 2.31562 2.93734C3.02812 2.2247 3.86597 1.66047 4.82917 1.24464C5.79236 0.828941 6.82153 0.621094 7.91667 0.621094C8.79444 0.621094 9.625 0.753038 10.4083 1.01693C11.1917 1.28082 11.9103 1.64887 12.5642 2.12109L11.6602 3.04589C11.1217 2.67505 10.5385 2.38658 9.91042 2.18047C9.28236 1.97422 8.61778 1.87109 7.91667 1.87109C6.06944 1.87109 4.49653 2.5204 3.19792 3.81901C1.89931 5.11762 1.25 6.69054 1.25 8.53776C1.25 10.385 1.89931 11.9579 3.19792 13.2565C4.49653 14.5551 6.06944 15.2044 7.91667 15.2044C9.76389 15.2044 11.3368 14.5551 12.6354 13.2565C13.934 11.9579 14.5833 10.385 14.5833 8.53776C14.5833 8.24498 14.5641 7.95547 14.5256 7.66922C14.4872 7.38297 14.4294 7.10463 14.3525 6.83422L15.3621 5.81672C15.5149 6.24505 15.6316 6.68575 15.7123 7.1388C15.793 7.59172 15.8333 8.05804 15.8333 8.53776C15.8333 9.6329 15.6256 10.6621 15.21 11.6253C14.7944 12.5885 14.2305 13.4263 13.5181 14.1388C12.8058 14.8513 11.9681 15.4153 11.005 15.8309C10.0419 16.2466 9.01299 16.4544 7.91812 16.4544ZM6.73396 12.0826L3.48083 8.82943L4.35896 7.9513L6.73396 10.3263L14.9552 2.09234L15.8333 2.97047L6.73396 12.0826Z" fill="currentColor"/>
</svg>
