<svg width="15" height="16" viewBox="0 0 15 16" fill="none" xmlns="http://www.w3.org/2000/svg">
<path d="M7.50138 15.5C6.46401 15.5 5.48895 15.3032 4.57618 14.9095C3.66342 14.5158 2.86947 13.9815 2.19434 13.3066C1.51921 12.6318 0.984671 11.8382 0.590724 10.9258C0.196908 10.0134 0 9.03862 0 8.00138C0 6.96401 0.196908 5.98895 0.590724 5.07618C0.984408 4.16342 1.51875 3.36947 2.19375 2.69434C2.86875 2.01921 3.6625 1.48467 4.575 1.09072C5.4875 0.696908 6.4625 0.5 7.5 0.5C8.33158 0.5 9.11842 0.625 9.86053 0.875C10.6026 1.125 11.2834 1.47368 11.9029 1.92105L11.0465 2.79717C10.5364 2.44586 9.98382 2.17257 9.38882 1.9773C8.79382 1.78191 8.16421 1.68421 7.5 1.68421C5.75 1.68421 4.25987 2.29934 3.02961 3.52961C1.79934 4.75987 1.18421 6.25 1.18421 8C1.18421 9.75 1.79934 11.2401 3.02961 12.4704C4.25987 13.7007 5.75 14.3158 7.5 14.3158C9.25 14.3158 10.7401 13.7007 11.9704 12.4704C13.2007 11.2401 13.8158 9.75 13.8158 8C13.8158 7.72263 13.7976 7.44836 13.7611 7.17717C13.7247 6.90599 13.67 6.6423 13.5971 6.38612L14.5536 5.42217C14.6983 5.82796 14.8089 6.24546 14.8853 6.67467C14.9618 7.10375 15 7.54553 15 8C15 9.0375 14.8032 10.0125 14.4095 10.925C14.0158 11.8375 13.4815 12.6313 12.8066 13.3063C12.1318 13.9813 11.3382 14.5156 10.4258 14.9093C9.51342 15.3031 8.53862 15.5 7.50138 15.5ZM6.37954 11.3582L3.29763 8.27632L4.12954 7.44441L6.37954 9.69441L14.1681 1.89382L15 2.72572L6.37954 11.3582Z" fill="currentColor"/>
</svg>
