<svg width="15" height="17" viewBox="0 0 15 17" fill="none" xmlns="http://www.w3.org/2000/svg">
<path d="M2.9669 16.7448C2.46307 16.7448 2.03177 16.5654 1.67298 16.2066C1.31419 15.8478 1.1348 15.4165 1.1348 14.9127V3.00401C0.875253 3.00401 0.657691 2.91622 0.482115 2.74065C0.306538 2.56507 0.21875 2.34751 0.21875 2.08796C0.21875 1.82841 0.306538 1.61085 0.482115 1.43527C0.657691 1.2597 0.875253 1.17191 1.1348 1.17191H4.799C4.799 0.912362 4.88679 0.6948 5.06237 0.519224C5.23794 0.343648 5.45551 0.255859 5.71505 0.255859H9.37926C9.6388 0.255859 9.85637 0.343648 10.0319 0.519224C10.2075 0.6948 10.2953 0.912362 10.2953 1.17191H13.9595C14.2191 1.17191 14.4366 1.2597 14.6122 1.43527C14.7878 1.61085 14.8756 1.82841 14.8756 2.08796C14.8756 2.34751 14.7878 2.56507 14.6122 2.74065C14.4366 2.91622 14.2191 3.00401 13.9595 3.00401V14.9127C13.9595 15.4165 13.7801 15.8478 13.4213 16.2066C13.0625 16.5654 12.6312 16.7448 12.1274 16.7448H2.9669ZM5.71505 13.0806C5.9746 13.0806 6.19216 12.9928 6.36774 12.8172C6.54332 12.6416 6.6311 12.4241 6.6311 12.1645V5.75216C6.6311 5.49261 6.54332 5.27505 6.36774 5.09948C6.19216 4.9239 5.9746 4.83611 5.71505 4.83611C5.45551 4.83611 5.23794 4.9239 5.06237 5.09948C4.88679 5.27505 4.799 5.49261 4.799 5.75216V12.1645C4.799 12.4241 4.88679 12.6416 5.06237 12.8172C5.23794 12.9928 5.45551 13.0806 5.71505 13.0806ZM9.37926 13.0806C9.6388 13.0806 9.85637 12.9928 10.0319 12.8172C10.2075 12.6416 10.2953 12.4241 10.2953 12.1645V5.75216C10.2953 5.49261 10.2075 5.27505 10.0319 5.09948C9.85637 4.9239 9.6388 4.83611 9.37926 4.83611C9.11971 4.83611 8.90215 4.9239 8.72657 5.09948C8.55099 5.27505 8.4632 5.49261 8.4632 5.75216V12.1645C8.4632 12.4241 8.55099 12.6416 8.72657 12.8172C8.90215 12.9928 9.11971 13.0806 9.37926 13.0806Z" fill="currentColor"/>
</svg>
