<svg width="20" height="18" viewBox="0 0 20 18" fill="none" xmlns="http://www.w3.org/2000/svg">
<path d="M17.4494 12.1595C17.9348 12.1595 18.3595 11.9775 18.7235 11.6135C19.0876 11.2494 19.2696 10.8247 19.2696 10.3393V8.51908C19.2696 8.4129 19.2582 8.29914 19.2355 8.17779C19.2127 8.05644 19.1786 7.94268 19.1331 7.8365L16.4027 1.4202C16.2662 1.11683 16.0387 0.858967 15.7201 0.646608C15.4016 0.434248 15.0679 0.328068 14.719 0.328068H7.43813C6.93756 0.328068 6.50905 0.506298 6.15259 0.862759C5.79613 1.21922 5.6179 1.64773 5.6179 2.14829V11.4087C5.6179 11.6514 5.6672 11.8827 5.76579 12.1026C5.86439 12.3226 5.99711 12.516 6.16397 12.6828L11.1013 17.5975C11.3289 17.8098 11.5981 17.9387 11.9091 17.9842C12.22 18.0298 12.5196 17.9767 12.8078 17.825C13.096 17.6733 13.3046 17.4609 13.4335 17.1879C13.5624 16.9149 13.589 16.6342 13.5131 16.346L12.4892 12.1595H17.4494ZM1.97745 0.328068C1.47689 0.328068 1.04838 0.506298 0.691918 0.862759C0.335457 1.21922 0.157227 1.64773 0.157227 2.14829V10.3393C0.157227 10.8399 0.335457 11.2684 0.691918 11.6248C1.04838 11.9813 1.47689 12.1595 1.97745 12.1595C2.47801 12.1595 2.90652 11.9813 3.26299 11.6248C3.61945 11.2684 3.79768 10.8399 3.79768 10.3393V2.14829C3.79768 1.64773 3.61945 1.21922 3.26299 0.862759C2.90652 0.506298 2.47801 0.328068 1.97745 0.328068Z" fill="#FF3538"/>
</svg>
