<svg width="87" height="86" viewBox="0 0 87 86" fill="none" xmlns="http://www.w3.org/2000/svg">
<path d="M26.3 63.5815L43.5 46.3815L60.7 63.5815L64.0815 60.2L46.8815 43L64.0815 25.8L60.7 22.4185L43.5 39.6185L26.3 22.4185L22.9185 25.8L40.1185 43L22.9185 60.2L26.3 63.5815ZM43.5155 86C37.5696 86 31.9792 84.8717 26.7443 82.615C21.5103 80.3582 16.9571 77.2957 13.0847 73.4273C9.21228 69.5589 6.14693 65.0096 3.88864 59.7796C1.62955 54.5503 0.5 48.9623 0.5 43.0155C0.5 37.0696 1.62835 31.4792 3.88506 26.2443C6.14176 21.0103 9.20432 16.4571 13.0727 12.5847C16.9411 8.71228 21.4904 5.64693 26.7204 3.38864C31.9497 1.12955 37.5377 0 43.4845 0C49.4304 0 55.0208 1.12836 60.2557 3.38506C65.4897 5.64176 70.0429 8.70432 73.9153 12.5727C77.7877 16.4411 80.8531 20.9904 83.1114 26.2204C85.3705 31.4497 86.5 37.0377 86.5 42.9845C86.5 48.9304 85.3716 54.5208 83.1149 59.7557C80.8582 64.9897 77.7957 69.5429 73.9273 73.4153C70.0589 77.2877 65.5096 80.3531 60.2796 82.6114C55.0503 84.8705 49.4623 86 43.5155 86ZM43.5 81.2222C54.1704 81.2222 63.2083 77.5194 70.6139 70.1139C78.0194 62.7083 81.7222 53.6704 81.7222 43C81.7222 32.3296 78.0194 23.2917 70.6139 15.8861C63.2083 8.48056 54.1704 4.77778 43.5 4.77778C32.8296 4.77778 23.7917 8.48056 16.3861 15.8861C8.98056 23.2917 5.27778 32.3296 5.27778 43C5.27778 53.6704 8.98056 62.7083 16.3861 70.1139C23.7917 77.5194 32.8296 81.2222 43.5 81.2222Z" fill="#FF3538"/>
</svg>
