<svg width="17" height="18" viewBox="0 0 17 18" fill="none" xmlns="http://www.w3.org/2000/svg">
<path d="M11.3757 12.5342L15.9879 17.1458C16.0999 17.254 16.2499 17.3138 16.4056 17.3125C16.5612 17.3111 16.7101 17.2487 16.8202 17.1386C16.9303 17.0285 16.9928 16.8796 16.9941 16.7239C16.9955 16.5682 16.9356 16.4182 16.8275 16.3063L1.38997 0.868765C1.3352 0.812056 1.26968 0.766823 1.19724 0.735705C1.1248 0.704587 1.04689 0.688207 0.96805 0.687522C0.889212 0.686837 0.811027 0.70186 0.738058 0.731715C0.665088 0.761569 0.598795 0.805657 0.543046 0.861405C0.487297 0.917154 0.443209 0.983447 0.413355 1.05642C0.383501 1.12939 0.368478 1.20757 0.369163 1.28641C0.369848 1.36525 0.386227 1.44316 0.417345 1.5156C0.448463 1.58804 0.493696 1.65356 0.550405 1.70833L3.63197 4.78989C1.26291 6.6602 0.411468 9.39145 0.399593 9.4348C0.304593 9.74948 0.482718 10.076 0.797406 10.171C1.11209 10.266 1.44459 10.0879 1.53959 9.77323C1.58294 9.62242 2.34591 7.20645 4.46441 5.62292L6.34956 7.50808C5.98104 7.82885 5.68244 8.222 5.47233 8.66308C5.26221 9.10417 5.14506 9.58375 5.12817 10.072C5.11128 10.5603 5.19501 11.0468 5.37415 11.5014C5.55328 11.9559 5.824 12.3688 6.16948 12.7143C6.51495 13.0597 6.92779 13.3304 7.38234 13.5096C7.83688 13.6887 8.32342 13.7725 8.8117 13.7556C9.29998 13.7387 9.77957 13.6215 10.2207 13.4114C10.6617 13.2013 11.0549 12.9027 11.3757 12.5342ZM10.5331 11.691C10.3234 11.949 10.0619 12.16 9.76545 12.3105C9.46903 12.461 9.14431 12.5476 8.8123 12.5647C8.4803 12.5818 8.14841 12.529 7.8381 12.4097C7.5278 12.2904 7.24599 12.1073 7.01092 11.8722C6.77585 11.6371 6.59275 11.3553 6.47346 11.045C6.35417 10.7347 6.30136 10.4028 6.31844 10.0708C6.33551 9.73883 6.4221 9.41411 6.5726 9.11769C6.72309 8.82126 6.93414 8.55973 7.19209 8.35001L10.5331 11.691ZM8.42353 6.6418L9.98688 8.20573C10.2624 8.38564 10.4975 8.62136 10.678 8.89627L12.2419 10.4602C12.2479 10.3723 12.251 10.2839 12.2514 10.1948C12.2515 9.70457 12.1504 9.2196 11.9544 8.77024C11.7584 8.32089 11.4718 7.91682 11.1125 7.58331C10.7532 7.24981 10.3289 6.99405 9.86623 6.83205C9.40354 6.67004 8.9124 6.60527 8.42353 6.6418ZM5.47675 3.69501L6.39409 4.61355C7.13415 4.3724 7.90823 4.25211 8.68656 4.2573C14.0927 4.2573 15.7611 9.54345 15.8341 9.77323C15.9113 10.0285 16.1488 10.1948 16.4041 10.1948V10.1889C16.4966 10.1897 16.588 10.1688 16.6709 10.1279C16.7538 10.0869 16.8259 10.027 16.8814 9.95305C16.9369 9.87907 16.9742 9.79308 16.9903 9.70202C17.0064 9.61096 17.0009 9.51738 16.9741 9.42886C16.9557 9.36948 14.9904 3.0698 8.68597 3.0698C7.45691 3.0698 6.39291 3.30908 5.47616 3.69501" fill="currentColor"/>
</svg>
