<svg width="18" height="12" viewBox="0 0 18 12" fill="none" xmlns="http://www.w3.org/2000/svg">
<path d="M1.45995 6.9375V6.942C1.43466 7.03727 1.39082 7.12663 1.33093 7.20496C1.27104 7.2833 1.19628 7.34907 1.11092 7.39853C1.02556 7.44798 0.93128 7.48015 0.833469 7.49318C0.735658 7.50622 0.636233 7.49987 0.54088 7.4745C-0.106375 7.3035 0.0077582 6.558 0.0077582 6.558L0.0347899 6.465C0.0347899 6.465 0.0738353 6.339 0.105372 6.2475C0.490753 5.16823 1.05808 4.16274 1.78283 3.2745C3.1299 1.6335 5.39604 0 8.99273 0C12.5894 0 14.8556 1.6335 16.2041 3.2745C16.9289 4.16274 17.4962 5.16823 17.8816 6.2475C17.9139 6.34025 17.944 6.43378 17.9717 6.528L17.9762 6.5475V6.5535L17.9777 6.5565C18.0253 6.7474 17.996 6.94935 17.8959 7.11882C17.7959 7.28829 17.6332 7.41171 17.4429 7.46248C17.2526 7.51324 17.0499 7.48729 16.8786 7.39021C16.7073 7.29313 16.581 7.1327 16.527 6.9435L16.5255 6.9375L16.5135 6.9L16.4609 6.7365C16.1336 5.82529 15.6537 4.97621 15.0418 4.2255C13.9275 2.868 12.0638 1.5 8.99273 1.5C5.92165 1.5 4.05948 2.868 2.94368 4.2255C2.33172 4.97621 1.85184 5.82529 1.52453 6.7365L1.47197 6.9L1.45995 6.9375ZM8.99273 4.5C7.99701 4.5 7.04207 4.89509 6.33799 5.59835C5.63391 6.30161 5.23836 7.25544 5.23836 8.25C5.23836 9.24456 5.63391 10.1984 6.33799 10.9017C7.04207 11.6049 7.99701 12 8.99273 12C9.98846 12 10.9434 11.6049 11.6475 10.9017C12.3516 10.1984 12.7471 9.24456 12.7471 8.25C12.7471 7.25544 12.3516 6.30161 11.6475 5.59835C10.9434 4.89509 9.98846 4.5 8.99273 4.5ZM6.74011 8.25C6.74011 7.65326 6.97744 7.08097 7.39989 6.65901C7.82234 6.23705 8.3953 6 8.99273 6C9.59017 6 10.1631 6.23705 10.5856 6.65901C11.008 7.08097 11.2454 7.65326 11.2454 8.25C11.2454 8.84674 11.008 9.41903 10.5856 9.84099C10.1631 10.2629 9.59017 10.5 8.99273 10.5C8.3953 10.5 7.82234 10.2629 7.39989 9.84099C6.97744 9.41903 6.74011 8.84674 6.74011 8.25Z" fill="currentColor"/>
</svg>
