<svg width="18" height="18" viewBox="0 0 17 18" fill="none" xmlns="http://www.w3.org/2000/svg">
<path d="M11.2513 12.6139L15.9661 17.3296C16.0806 17.4402 16.2339 17.5014 16.3931 17.5C16.5522 17.4986 16.7044 17.4347 16.817 17.3222C16.9295 17.2096 16.9933 17.0573 16.9947 16.8981C16.9961 16.7389 16.9349 16.5856 16.8244 16.4711L1.04353 0.685354C0.98754 0.627365 0.920566 0.581112 0.846515 0.549292C0.772464 0.517472 0.69282 0.500723 0.612229 0.500023C0.531638 0.499322 0.451714 0.514684 0.377122 0.545212C0.302529 0.57574 0.234762 0.620822 0.177773 0.677828C0.120784 0.734834 0.075716 0.802623 0.0451978 0.877239C0.0146796 0.951854 -0.000677398 1.0318 2.29166e-05 1.11242C0.000723231 1.19303 0.0174669 1.2727 0.0492767 1.34678C0.0810866 1.42085 0.127326 1.48785 0.185296 1.54385L3.33539 4.69493C0.913642 6.60743 0.0432687 9.40028 0.0311296 9.4446C-0.0659831 9.76639 0.116103 10.1003 0.437789 10.1975C0.759475 10.2946 1.09937 10.1125 1.19648 9.79068C1.24079 9.63646 2.02073 7.166 4.18634 5.54675L6.11342 7.47443C5.73671 7.80244 5.43147 8.20445 5.21668 8.65548C5.00189 9.10651 4.88214 9.59692 4.86487 10.0962C4.84761 10.5955 4.93319 11.093 5.11631 11.5578C5.29944 12.0226 5.57618 12.4448 5.92933 12.798C6.28249 13.1513 6.70451 13.4281 7.16917 13.6113C7.63382 13.7945 8.13118 13.8801 8.63032 13.8628C9.12946 13.8456 9.61971 13.7258 10.0706 13.5109C10.5215 13.2961 10.9234 12.9907 11.2513 12.6139ZM10.39 11.7517C10.1756 12.0155 9.9083 12.2313 9.60528 12.3852C9.30226 12.5391 8.97032 12.6276 8.63093 12.6451C8.29155 12.6626 7.95227 12.6086 7.63507 12.4866C7.31786 12.3646 7.02979 12.1774 6.78949 11.937C6.54919 11.6966 6.36202 11.4085 6.24008 11.0912C6.11814 10.7739 6.06415 10.4345 6.0816 10.095C6.09906 9.7555 6.18758 9.42345 6.34142 9.12034C6.49526 8.81723 6.711 8.5498 6.97469 8.33535L10.39 11.7517ZM8.23352 6.5886L9.83163 8.18782C10.1133 8.37178 10.3536 8.61282 10.5381 8.89392L12.1368 10.4931C12.1429 10.4033 12.1461 10.3128 12.1466 10.2217C12.1466 9.72046 12.0432 9.22455 11.8429 8.76506C11.6426 8.30557 11.3496 7.89239 10.9823 7.55136C10.615 7.21033 10.1813 6.94881 9.7083 6.78315C9.23532 6.61749 8.73326 6.55126 8.23352 6.5886ZM5.2212 3.57535L6.15894 4.5146C6.91546 4.26802 7.70675 4.14502 8.5024 4.15032C14.0287 4.15032 15.7343 9.55571 15.8089 9.79068C15.8878 10.0517 16.1306 10.2217 16.3916 10.2217V10.2157C16.4861 10.2166 16.5795 10.1952 16.6643 10.1533C16.749 10.1114 16.8227 10.0502 16.8795 9.97454C16.9362 9.8989 16.9743 9.81096 16.9908 9.71785C17.0073 9.62474 17.0016 9.52905 16.9743 9.43853C16.9555 9.37782 14.9464 2.93603 8.50179 2.93603C7.24539 2.93603 6.15773 3.18071 5.22059 3.57535" fill="currentColor"/>
</svg>
