<svg width="14" height="16" viewBox="0 0 14 16" fill="none" xmlns="http://www.w3.org/2000/svg">
<path d="M12.5263 13.0909H4.42105C4.01579 13.0909 3.66886 12.9485 3.38026 12.6636C3.09167 12.3788 2.94737 12.0364 2.94737 11.6364V1.45455C2.94737 1.05455 3.09167 0.712121 3.38026 0.427273C3.66886 0.142424 4.01579 0 4.42105 0H8.97105C9.16754 0 9.35482 0.0363636 9.5329 0.109091C9.71097 0.181818 9.86754 0.284848 10.0026 0.418182L13.5763 3.94545C13.7114 4.07879 13.8158 4.23333 13.8895 4.40909C13.9632 4.58485 14 4.7697 14 4.96364V11.6364C14 12.0364 13.8557 12.3788 13.5671 12.6636C13.2785 12.9485 12.9316 13.0909 12.5263 13.0909ZM12.5263 5.09091H9.94737C9.64035 5.09091 9.37939 4.98485 9.16447 4.77273C8.94956 4.56061 8.8421 4.30303 8.8421 4V1.45455H4.42105V11.6364H12.5263V5.09091ZM1.47368 16C1.06842 16 0.721491 15.8576 0.432895 15.5727C0.144298 15.2879 0 14.9455 0 14.5455V5.09091C0 4.88485 0.070614 4.71212 0.211842 4.57273C0.35307 4.43333 0.52807 4.36364 0.736842 4.36364C0.945614 4.36364 1.12061 4.43333 1.26184 4.57273C1.40307 4.71212 1.47368 4.88485 1.47368 5.09091V14.5455H8.8421C9.05088 14.5455 9.22588 14.6152 9.36711 14.7545C9.50833 14.8939 9.57895 15.0667 9.57895 15.2727C9.57895 15.4788 9.50833 15.6515 9.36711 15.7909C9.22588 15.9303 9.05088 16 8.8421 16H1.47368Z" fill="currentColor"/>
</svg>
