<svg width="22" height="16" viewBox="0 0 22 16" fill="none" xmlns="http://www.w3.org/2000/svg">
<path d="M1.02663 5.06522H3.50775C3.94351 6.47401 5.22314 7.5 6.73039 7.5C8.23769 7.5 9.51735 6.47401 9.95302 5.06522H20.9698C21.5378 5.06522 22 4.5873 22 4C22 3.4127 21.5378 2.93478 20.9698 2.93478H9.95655C9.52079 1.52599 8.24116 0.5 6.73392 0.5C5.22668 0.5 3.94695 1.52599 3.51128 2.93478H1.03016C0.462188 2.93478 0 3.4127 0 4C0 4.5873 0.462188 5.06522 1.03016 5.06522H1.02663Z" fill="currentColor"/>
<path d="M1.02999 13.0652H12.045C12.4807 14.474 13.7602 15.5 15.2672 15.5C16.7742 15.5 18.0537 14.474 18.4893 13.0652H20.97C21.5379 13.0652 22 12.5873 22 12C22 11.4127 21.5379 10.9348 20.97 10.9348H18.4893C18.0536 9.52599 16.7742 8.5 15.2672 8.5C13.7601 8.5 12.4806 9.52599 12.045 10.9348H1.02999C0.462115 10.9348 0 11.4127 0 12C0 12.5873 0.462115 13.0652 1.02999 13.0652Z" fill="currentColor"/>
</svg>
