<svg width="28" height="27" viewBox="0 0 28 27" fill="none" xmlns="http://www.w3.org/2000/svg">
<path d="M6.32837 25.9069C6.13971 26.0227 5.90474 25.8543 5.95381 25.6385L7.71529 17.8898C7.85725 17.2654 7.64678 16.6132 7.16654 16.1896L1.24304 10.9639L0.746876 11.5264L1.24304 10.9639C1.07832 10.8186 1.16763 10.5468 1.38643 10.5274L9.18421 9.83868C9.83312 9.78136 10.3965 9.36834 10.6464 8.76673L13.66 1.5111C13.7454 1.30563 14.0364 1.30563 14.1218 1.5111L17.1354 8.76673C17.3853 9.36834 17.9487 9.78136 18.5976 9.83868L26.3954 10.5274C26.6142 10.5468 26.7035 10.8186 26.5388 10.9639L20.6153 16.1896C20.135 16.6132 19.9246 17.2654 20.0665 17.8898L21.828 25.6385C21.8771 25.8543 21.6421 26.0227 21.4534 25.9069L14.8064 21.8268C14.2448 21.4821 13.5371 21.4821 12.9754 21.8268L6.32837 25.9069Z" stroke="currentColor" stroke-width="1.5"/>
</svg>
