<svg width="24" height="23" viewBox="0 0 24 23" fill="none" xmlns="http://www.w3.org/2000/svg">
<path d="M5.93797 22.7733C5.18194 23.2316 4.24678 22.5554 4.44512 21.6938L5.90763 15.341C5.99045 14.9813 5.86833 14.6051 5.58997 14.3626L0.679724 10.0852C0.0145677 9.5058 0.370875 8.41164 1.24968 8.33499L7.73286 7.76952C8.10249 7.73728 8.42389 7.50304 8.56775 7.16103L11.0787 1.19142C11.4221 0.375054 12.5789 0.375054 12.9223 1.19142L15.4333 7.16103C15.5771 7.50304 15.8985 7.73728 16.2682 7.76952L22.7513 8.33499C23.6301 8.41164 23.9865 9.5058 23.3213 10.0852L18.4111 14.3626C18.1327 14.6051 18.0106 14.9813 18.0934 15.341L19.5559 21.6938C19.7542 22.5554 18.8191 23.2316 18.0631 22.7733L12.5189 19.4129C12.2003 19.2198 11.8008 19.2198 11.4822 19.4129L5.93797 22.7733Z" fill="currentColor"/>
</svg>
