<svg width="26" height="26" viewBox="0 0 26 26" fill="none" xmlns="http://www.w3.org/2000/svg">
<g clip-path="url(#clip0_6015_3672)">
<path d="M25.4889 12.9746C25.4889 13.8887 24.8381 14.6047 24.1004 14.6047H22.7118L22.7422 22.7398C22.7422 22.877 22.7335 23.0141 22.7205 23.1512V23.9738C22.7205 25.0961 21.9438 26.0051 20.9848 26.0051H20.2905C20.2428 26.0051 20.195 26.0051 20.1473 26C20.0866 26.0051 20.0258 26.0051 19.9651 26.0051L18.5548 26H17.5134C16.5544 26 15.7777 25.091 15.7777 23.9688V19.5C15.7777 18.6012 15.1572 17.875 14.3891 17.875H11.612C10.8439 17.875 10.2234 18.6012 10.2234 19.5V23.9688C10.2234 25.091 9.44669 26 8.48772 26H6.06207C5.99698 26 5.93189 25.9949 5.8668 25.9898C5.81473 25.9949 5.76266 26 5.71059 26H5.01631C4.05733 26 3.2806 25.091 3.2806 23.9688V18.2812C3.2806 18.2355 3.2806 18.1848 3.28494 18.1391V14.5996H1.89638C1.11531 14.5996 0.507812 13.8887 0.507812 12.9695C0.507812 12.5125 0.63799 12.1062 0.941739 11.7508L12.0633 0.40625C12.367 0.0507812 12.7142 0 13.0179 0C13.3217 0 13.6688 0.101562 13.9292 0.355469L25.0116 11.7559C25.3588 12.1113 25.5323 12.5176 25.4889 12.9746Z" fill="currentColor"/>
</g>
<defs>
<clipPath id="clip0_6015_3672">
<rect width="25" height="26" fill="white" transform="translate(0.5)"/>
</clipPath>
</defs>
</svg>
