<svg width="26" height="26" viewBox="0 0 26 26" fill="none" xmlns="http://www.w3.org/2000/svg">
<path d="M25.4884 12.9746C25.4884 13.8887 24.8375 14.6047 24.0998 14.6047H22.7113L22.7416 22.7398C22.7416 22.877 22.733 23.0141 22.7199 23.1512V23.9738C22.7199 25.0961 21.9432 26.0051 20.9842 26.0051H20.29C20.2422 26.0051 20.1945 26.0051 20.1468 26C20.086 26.0051 20.0253 26.0051 19.9645 26.0051L18.5543 26H17.5128C16.5539 26 15.7771 25.091 15.7771 23.9688V19.5C15.7771 18.6012 15.1566 17.875 14.3886 17.875H11.6114C10.8434 17.875 10.2229 18.6012 10.2229 19.5V23.9688C10.2229 25.091 9.44614 26 8.48717 26H6.06152C5.99643 26 5.93134 25.9949 5.86625 25.9898C5.81418 25.9949 5.76211 26 5.71004 26H5.01576C4.05678 26 3.28005 25.091 3.28005 23.9688V18.2812C3.28005 18.2355 3.28005 18.1848 3.28439 18.1391V14.5996H1.89583C1.11476 14.5996 0.507263 13.8887 0.507263 12.9695C0.507263 12.5125 0.637441 12.1062 0.941189 11.7508L12.0627 0.40625C12.3665 0.0507812 12.7136 0 13.0174 0C13.3211 0 13.6682 0.101562 13.9286 0.355469L25.0111 11.7559C25.3582 12.1113 25.5318 12.5176 25.4884 12.9746Z" fill="currentColor"/>
</svg>
