<svg width="20" height="18" viewBox="0 0 20 18" fill="none" xmlns="http://www.w3.org/2000/svg">
<path d="M17.2921 5.87953C17.7775 5.87953 18.2022 6.06156 18.5663 6.4256C18.9303 6.78965 19.1124 7.21437 19.1124 7.69976V9.51998C19.1124 9.62616 19.101 9.73993 19.0782 9.86127C19.0555 9.98262 19.0213 10.0964 18.9758 10.2026L16.2455 16.6189C16.109 16.9222 15.8815 17.1801 15.5629 17.3925C15.2444 17.6048 14.9107 17.711 14.5618 17.711H7.2809C6.78034 17.711 6.35183 17.5328 5.99537 17.1763C5.6389 16.8198 5.46067 16.3913 5.46067 15.8908V6.63038C5.46067 6.38768 5.50997 6.15636 5.60857 5.93642C5.70716 5.71647 5.83989 5.52307 6.00674 5.35622L10.9441 0.441612C11.1716 0.229253 11.4409 0.10032 11.7518 0.0548144C12.0628 0.00930883 12.3624 0.0623987 12.6506 0.214084C12.9388 0.36577 13.1473 0.578129 13.2763 0.851163C13.4052 1.1242 13.4317 1.40481 13.3559 1.69302L12.332 5.87953H17.2921ZM1.82022 17.711C1.31966 17.711 0.891152 17.5328 0.534691 17.1763C0.17823 16.8198 0 16.3913 0 15.8908V7.69976C0 7.1992 0.17823 6.77069 0.534691 6.41422C0.891152 6.05776 1.31966 5.87953 1.82022 5.87953C2.32079 5.87953 2.7493 6.05776 3.10576 6.41422C3.46222 6.77069 3.64045 7.1992 3.64045 7.69976V15.8908C3.64045 16.3913 3.46222 16.8198 3.10576 17.1763C2.7493 17.5328 2.32079 17.711 1.82022 17.711Z" fill="#058943"/>
</svg>
