<svg width="65" height="40" viewBox="0 0 65 40" fill="none" xmlns="http://www.w3.org/2000/svg">
<path d="M65 20.0723C65 30.7723 56.3 39.5723 45.5 39.5723C34.8 39.5723 26 30.7723 26 20.0723C26 9.37227 34.7 0.572266 45.4 0.572266C56.3 0.572266 65 9.37227 65 20.0723Z" fill="#F9B50B"/>
<path d="M38.9 20.1723C38.9 18.7723 38.7 17.3723 38.5 16.0723H26.5C26.6 15.3723 26.8 14.7723 27 13.9723H37.7C37.5 13.2723 37.2 12.5723 36.9 11.8723H27.8C28.1 11.1723 28.5 10.5723 28.9 9.77227H35.8C35.4 9.07227 34.9 8.37227 34.3 7.67227H30.5C31.1 6.97227 31.7 6.37227 32.5 5.67227C29.1 2.47227 24.5 0.572266 19.4 0.572266C8.8 0.872266 0 9.37227 0 20.0723C0 30.7723 8.7 39.5723 19.5 39.5723C24.6 39.5723 29.1 37.5723 32.6 34.4723C33.3 33.8723 33.9 33.1723 34.6 32.3723H30.6C30.1 31.7723 29.6 31.0723 29.2 30.3723H36C36.4 29.7723 36.8 29.0723 37.1 28.2723H28C27.7 27.6723 27.4 26.9723 27.2 26.1723H37.9C38.5 24.3723 38.9 22.3723 38.9 20.1723Z" fill="#C8191C"/>
<path d="M26.4004 25.0727L26.7004 23.2727C26.6004 23.2727 26.4004 23.3727 26.2004 23.3727C25.5004 23.3727 25.4004 22.9727 25.5004 22.7727L26.1004 19.1727H27.2004L27.5004 17.1727H26.5004L26.7004 15.9727H24.6004C24.6004 15.9727 23.4004 22.7727 23.4004 23.5727C23.4004 24.7727 24.1004 25.3727 25.1004 25.3727C25.7004 25.3727 26.2004 25.1727 26.4004 25.0727Z" fill="white"/>
<path d="M27.0996 21.7719C27.0996 24.6719 29.0996 25.3719 30.6996 25.3719C32.1996 25.3719 32.8996 25.0719 32.8996 25.0719L33.2996 23.0719C33.2996 23.0719 32.1996 23.5719 31.0996 23.5719C28.7996 23.5719 29.1996 21.8719 29.1996 21.8719H33.3996C33.3996 21.8719 33.6996 20.5719 33.6996 19.9719C33.6996 18.6719 32.9996 16.9719 30.6996 16.9719C28.6996 16.8719 27.0996 19.1719 27.0996 21.7719ZM30.6996 18.7719C31.7996 18.7719 31.5996 20.0719 31.5996 20.1719H29.2996C29.3996 20.0719 29.5996 18.7719 30.6996 18.7719Z" fill="white"/>
<path d="M43.7996 25.0727L44.1996 22.7727C44.1996 22.7727 43.1996 23.2727 42.3996 23.2727C40.9996 23.2727 40.2996 22.1727 40.2996 20.8727C40.2996 18.3727 41.4996 17.0727 42.9996 17.0727C43.9996 17.0727 44.8996 17.6727 44.8996 17.6727L45.1996 15.4727C45.1996 15.4727 43.9996 14.9727 42.7996 14.9727C40.3996 14.9727 38.0996 17.0727 38.0996 20.9727C38.0996 23.5727 39.2996 25.2727 41.7996 25.2727C42.6996 25.3727 43.7996 25.0727 43.7996 25.0727Z" fill="white"/>
<path d="M15.1002 16.8721C13.7002 16.8721 12.6002 17.2721 12.6002 17.2721L12.3002 19.0721C12.3002 19.0721 13.2002 18.6721 14.6002 18.6721C15.3002 18.6721 15.9002 18.7721 15.9002 19.3721C15.9002 19.7721 15.8002 19.8721 15.8002 19.8721H14.9002C13.1002 19.8721 11.2002 20.5721 11.2002 22.9721C11.2002 24.8721 12.4002 25.2721 13.2002 25.2721C14.6002 25.2721 15.3002 24.3721 15.4002 24.3721L15.3002 25.1721H17.0002L17.8002 19.4721C17.8002 16.9721 15.8002 16.8721 15.1002 16.8721ZM15.5002 21.4721C15.5002 21.7721 15.3002 23.4721 14.1002 23.4721C13.5002 23.4721 13.3002 22.9721 13.3002 22.6721C13.3002 22.1721 13.6002 21.4721 15.2002 21.4721C15.4002 21.4721 15.5002 21.4721 15.5002 21.4721Z" fill="white"/>
<path d="M19.7998 25.2725C20.2998 25.2725 22.8998 25.3725 22.8998 22.5725C22.8998 19.9725 20.3998 20.4725 20.3998 19.4725C20.3998 18.9725 20.7998 18.7725 21.4998 18.7725C21.7998 18.7725 22.8998 18.8725 22.8998 18.8725L23.1998 16.9725C23.1998 16.9725 22.4998 16.7725 21.1998 16.7725C19.6998 16.7725 18.0998 17.3725 18.0998 19.4725C18.0998 21.8725 20.6998 21.6725 20.6998 22.5725C20.6998 23.1725 19.9998 23.2725 19.4998 23.2725C18.5998 23.2725 17.5998 22.9725 17.5998 22.9725L17.2998 24.8725C17.4998 25.0725 18.0998 25.2725 19.7998 25.2725Z" fill="white"/>
<path d="M60.9996 15.2725L60.5996 18.0725C60.5996 18.0725 59.7996 17.0725 58.5996 17.0725C56.6996 17.0725 55.0996 19.3725 55.0996 22.0725C55.0996 23.7725 55.8996 25.4725 57.6996 25.4725C58.8996 25.4725 59.6996 24.6725 59.6996 24.6725L59.5996 25.3725H61.6996L63.1996 15.4725L60.9996 15.2725ZM59.9996 20.6725C59.9996 21.7725 59.4996 23.2725 58.2996 23.2725C57.5996 23.2725 57.1996 22.6725 57.1996 21.5725C57.1996 19.8725 57.8996 18.8725 58.8996 18.8725C59.5996 18.9725 59.9996 19.4725 59.9996 20.6725Z" fill="white"/>
<path d="M3.7998 25.1725L4.9998 17.7725L5.1998 25.1725H6.5998L9.2998 17.7725L8.1998 25.1725H10.3998L12.0998 15.2725H8.6998L6.5998 21.3725L6.4998 15.2725H3.4998L1.7998 25.1725H3.7998Z" fill="white"/>
<path d="M35.8 25.1723C36.4 21.7723 36.5 18.9723 38 19.4723C38.2 18.1723 38.5 17.5723 38.7 17.0723H38.3C37.4 17.0723 36.6 18.2723 36.6 18.2723L36.8 17.1723H34.8L33.5 25.1723H35.8Z" fill="white"/>
<path d="M48.6002 16.8721C47.2002 16.8721 46.1002 17.2721 46.1002 17.2721L45.8002 19.0721C45.8002 19.0721 46.7002 18.6721 48.1002 18.6721C48.8002 18.6721 49.4002 18.7721 49.4002 19.3721C49.4002 19.7721 49.3002 19.8721 49.3002 19.8721H48.4002C46.6002 19.8721 44.7002 20.5721 44.7002 22.9721C44.7002 24.8721 45.9002 25.2721 46.7002 25.2721C48.1002 25.2721 48.8002 24.3721 48.9002 24.3721L48.8002 25.1721H50.7002L51.5002 19.4721C51.5002 16.9721 49.3002 16.8721 48.6002 16.8721ZM49.1002 21.4721C49.1002 21.7721 48.9002 23.4721 47.7002 23.4721C47.1002 23.4721 46.9002 22.9721 46.9002 22.6721C46.9002 22.1721 47.2002 21.4721 48.8002 21.4721C49.0002 21.4721 49.0002 21.4721 49.1002 21.4721Z" fill="white"/>
<path d="M53.0998 25.1723C53.6998 21.7723 53.7998 18.9723 55.2998 19.4723C55.4998 18.1723 55.7998 17.5723 55.9998 17.0723H55.5998C54.6998 17.0723 53.8998 18.2723 53.8998 18.2723L54.0998 17.1723H52.0998L50.7998 25.1723H53.0998Z" fill="white"/>
</svg>
