<svg width="67" height="20" viewBox="0 0 67 20" fill="none" xmlns="http://www.w3.org/2000/svg">
<path d="M60.0645 0.439453H47.2617C48.0075 4.66562 52.1094 8.6432 56.5841 8.6432H66.7767C66.901 8.2703 66.901 7.6488 66.901 7.2759C66.901 3.54693 63.7935 0.439453 60.0645 0.439453Z" fill="url(#paint0_linear_2432_5638)"/>
<path d="M48.3789 9.38965V19.7065H54.5939V14.2373H60.063C63.0462 14.2373 65.6565 12.1242 66.5266 9.38965H48.3789Z" fill="#4FAD50"/>
<path d="M26.5029 0.439453V19.5815H31.9721C31.9721 19.5815 33.3394 19.5815 34.0852 18.2142C37.8142 10.8806 38.9328 8.6432 38.9328 8.6432H39.6786V19.5815H45.8936V0.439453H40.4244C40.4244 0.439453 39.0571 0.56376 38.3113 1.80675C35.2039 8.146 33.4637 11.3778 33.4637 11.3778H32.7179V0.439453H26.5029Z" fill="#4FAD50"/>
<path d="M0.400391 19.7055V0.563477H6.61534C6.61534 0.563477 8.35555 0.563473 9.34994 3.29805C11.8359 10.5074 12.0845 11.5018 12.0845 11.5018C12.0845 11.5018 12.5817 9.7616 14.8191 3.29805C15.8135 0.563473 17.5537 0.563477 17.5537 0.563477H23.7686V19.7055H17.5537V9.38872H16.8079L13.3275 19.7055H10.5929L7.11257 9.38872H6.36677V19.7055H0.400391Z" fill="#4FAD50"/>
<defs>
<linearGradient id="paint0_linear_2432_5638" x1="47.2396" y1="4.60012" x2="66.857" y2="4.60012" gradientUnits="userSpaceOnUse">
<stop stop-color="#27B1E6"/>
<stop offset="1" stop-color="#148ACA"/>
</linearGradient>
</defs>
</svg>
