<svg width="27" height="34" viewBox="0 0 27 34" fill="none" xmlns="http://www.w3.org/2000/svg">
<path d="M9.83321 21.5841L13.75 18.5871L17.5722 21.512L16.0943 16.8006L20.1564 13.6879H15.3225L13.75 8.90439L12.1775 13.6879H7.34363L11.3111 16.8006L9.83321 21.5841ZM13.75 33.5C9.94725 32.3833 6.78823 30.1037 4.27294 26.6612C1.75765 23.2187 0.5 19.341 0.5 15.0281V4.8987L13.75 0L27 4.8987V15.0281C27 19.341 25.7424 23.2187 23.2271 26.6612C20.7118 30.1037 17.5527 32.3833 13.75 33.5ZM13.75 31.5117C17.031 30.4814 19.744 28.421 21.8893 25.3303C24.0345 22.2397 25.1071 18.8056 25.1071 15.0281V6.17758L13.75 1.9991L2.39286 6.17758V15.0281C2.39286 18.8056 3.46548 22.2397 5.61071 25.3303C7.75595 28.421 10.469 30.4814 13.75 31.5117Z" fill="currentColor"/>
</svg>
