<svg width="18" height="18" viewBox="0 0 18 18" fill="none" xmlns="http://www.w3.org/2000/svg">
<path d="M6 18C4.33333 18 2.91667 17.4167 1.75 16.25C0.583333 15.0833 0 13.6667 0 12V6C0 4.33333 0.583333 2.91667 1.75 1.75C2.91667 0.583333 4.33333 0 6 0H12C13.6667 0 15.0833 0.583333 16.25 1.75C17.4167 2.91667 18 4.33333 18 6V12C18 13.6667 17.4167 15.0833 16.25 16.25C15.0833 17.4167 13.6667 18 12 18H6ZM8 13L14 7L12.6 5.6L8 10.2L5.8 8L4.4 9.4L8 13ZM6 16H12C13.1 16 14.0417 15.6083 14.825 14.825C15.6083 14.0417 16 13.1 16 12V6C16 4.9 15.6083 3.95833 14.825 3.175C14.0417 2.39167 13.1 2 12 2H6C4.9 2 3.95833 2.39167 3.175 3.175C2.39167 3.95833 2 4.9 2 6V12C2 13.1 2.39167 14.0417 3.175 14.825C3.95833 15.6083 4.9 16 6 16Z" fill="currentColor"/>
</svg>
