<svg width="43" height="43" viewBox="0 0 43 43" fill="none" xmlns="http://www.w3.org/2000/svg">
<path d="M33.3017 26.5002C34.0017 26.8002 34.3017 27.8002 34.3017 28.3002C34.4017 29.1002 34.2017 29.5002 33.9017 29.5002C33.6017 29.5002 33.2017 29.2002 32.8017 28.5002C32.4017 27.8002 32.2017 27.1002 32.4017 26.7002C32.7017 26.5002 33.0017 26.4002 33.3017 26.5002Z" fill="#F28A1A"/>
<path d="M29.2015 29.5996C29.6015 29.5996 30.1015 29.7996 30.6015 30.1996C31.4015 30.8996 31.7015 31.6996 31.3015 32.2996C31.1015 32.5996 30.6015 32.7996 30.2015 32.7996C29.7015 32.7996 29.2015 32.5996 28.9015 32.2996C28.1015 31.5996 27.9015 30.5996 28.4015 29.9996C28.5015 29.7996 28.8015 29.5996 29.2015 29.5996Z" fill="#F28A1A"/>
<path d="M19.7014 37.5C9.30137 37.5 0.901367 29.1 0.901367 18.8C0.901367 8.5 9.30137 0 19.7014 0C30.1014 0 38.5014 8.4 38.5014 18.8C38.5014 22.3 37.5014 25.6 35.9014 28.4C35.8014 28.5 35.7014 28.5 35.7014 28.3C35.0014 23.7 32.2014 21.2 28.2014 20.4C27.8014 20.3 27.8014 20.1 28.3014 20.1C29.6014 20 31.3014 20 32.3014 20.2C32.4014 19.7 32.4014 19.2 32.4014 18.8C32.4014 12 26.8014 6.4 20.0014 6.4C13.2014 6.4 7.60137 12 7.60137 18.8C7.60137 25.6 13.2014 31.2 20.0014 31.2H20.6014C20.4014 30.1 20.3014 29 20.4014 27.8C20.4014 27 20.6014 26.9 20.9014 27.5C22.6014 30.5 25.1014 33.1 29.9014 34.2C33.8014 35.1 37.7014 36.1 42.0014 41.4C42.4014 41.9 41.8014 42.4 41.4014 42C37.1014 38.2 33.2014 36.9 29.6014 36.9C25.1014 37 22.4014 37.5 19.7014 37.5Z" fill="#F28A1A"/>
</svg>
