<svg width="26" height="28" viewBox="0 0 26 28" fill="none" xmlns="http://www.w3.org/2000/svg">
<path fill-rule="evenodd" clip-rule="evenodd" d="M6.6 10.2393C6.37015 10.2393 6.14971 10.3376 5.98717 10.5126C5.82464 10.6877 5.73333 10.9251 5.73333 11.1726V22.3726C5.73333 22.6201 5.82464 22.8575 5.98717 23.0326C6.14971 23.2076 6.37015 23.3059 6.6 23.3059H20.4667C20.6965 23.3059 20.917 23.2076 21.0795 23.0326C21.242 22.8575 21.3333 22.6201 21.3333 22.3726V11.1726C21.3333 10.9251 21.242 10.6877 21.0795 10.5126C20.917 10.3376 20.6965 10.2393 20.4667 10.2393H18.3C18.0701 10.2393 17.8497 10.1409 17.6872 9.96589C17.5246 9.79086 17.4333 9.55346 17.4333 9.30593C17.4333 9.05839 17.5246 8.821 17.6872 8.64596C17.8497 8.47093 18.0701 8.37259 18.3 8.37259H20.4667C21.1562 8.37259 21.8176 8.66759 22.3051 9.19269C22.7927 9.7178 23.0667 10.43 23.0667 11.1726V22.3726C23.0667 23.1152 22.7927 23.8274 22.3051 24.3525C21.8176 24.8776 21.1562 25.1726 20.4667 25.1726H6.6C5.91044 25.1726 5.24912 24.8776 4.76152 24.3525C4.27393 23.8274 4 23.1152 4 22.3726V11.1726C4 10.43 4.27393 9.7178 4.76152 9.19269C5.24912 8.66759 5.91044 8.37259 6.6 8.37259H8.76667C8.99652 8.37259 9.21696 8.47093 9.37949 8.64596C9.54202 8.821 9.63333 9.05839 9.63333 9.30593C9.63333 9.55346 9.54202 9.79086 9.37949 9.96589C9.21696 10.1409 8.99652 10.2393 8.76667 10.2393H6.6ZM12.6667 3.95979L10.1845 6.63286C10.0367 6.78124 9.8411 6.86202 9.63903 6.85818C9.43696 6.85434 9.24416 6.76618 9.10125 6.61228C8.95834 6.45837 8.87648 6.25074 8.87291 6.03313C8.86935 5.81551 8.94436 5.6049 9.08213 5.44566L12.9821 1.24566C13.1284 1.08836 13.3266 1 13.5333 1C13.74 1 13.9383 1.08836 14.0845 1.24566L17.9845 5.44566C18.1223 5.6049 18.1973 5.81551 18.1938 6.03313C18.1902 6.25074 18.1083 6.45837 17.9654 6.61228C17.8225 6.76618 17.6297 6.85434 17.4276 6.85818C17.2256 6.86202 17.03 6.78124 16.8821 6.63286L14.4 3.95979V16.7726C14.4 17.0201 14.3087 17.2575 14.1462 17.4326C13.9836 17.6076 13.7632 17.7059 13.5333 17.7059C13.3035 17.7059 13.083 17.6076 12.9205 17.4326C12.758 17.2575 12.6667 17.0201 12.6667 16.7726V3.95979Z" fill="currentColor"/>
</svg>
