<svg width="13" height="14" viewBox="0 0 13 14" fill="none" xmlns="http://www.w3.org/2000/svg">
<path d="M10.5 14C9.94444 14 9.47222 13.7958 9.08333 13.3875C8.69444 12.9792 8.5 12.4833 8.5 11.9C8.5 11.83 8.51667 11.6667 8.55 11.41L3.86667 8.54C3.68889 8.715 3.48333 8.85208 3.25 8.95125C3.01667 9.05042 2.76667 9.1 2.5 9.1C1.94444 9.1 1.47222 8.89583 1.08333 8.4875C0.694444 8.07917 0.5 7.58333 0.5 7C0.5 6.41667 0.694444 5.92083 1.08333 5.5125C1.47222 5.10417 1.94444 4.9 2.5 4.9C2.76667 4.9 3.01667 4.94958 3.25 5.04875C3.48333 5.14792 3.68889 5.285 3.86667 5.46L8.55 2.59C8.52778 2.50833 8.51389 2.42958 8.50833 2.35375C8.50278 2.27792 8.5 2.19333 8.5 2.1C8.5 1.51667 8.69444 1.02083 9.08333 0.6125C9.47222 0.204167 9.94444 0 10.5 0C11.0556 0 11.5278 0.204167 11.9167 0.6125C12.3056 1.02083 12.5 1.51667 12.5 2.1C12.5 2.68333 12.3056 3.17917 11.9167 3.5875C11.5278 3.99583 11.0556 4.2 10.5 4.2C10.2333 4.2 9.98333 4.15042 9.75 4.05125C9.51667 3.95208 9.31111 3.815 9.13333 3.64L4.45 6.51C4.47222 6.59167 4.48611 6.67042 4.49167 6.74625C4.49722 6.82208 4.5 6.90667 4.5 7C4.5 7.09333 4.49722 7.17792 4.49167 7.25375C4.48611 7.32958 4.47222 7.40833 4.45 7.49L9.13333 10.36C9.31111 10.185 9.51667 10.0479 9.75 9.94875C9.98333 9.84958 10.2333 9.8 10.5 9.8C11.0556 9.8 11.5278 10.0042 11.9167 10.4125C12.3056 10.8208 12.5 11.3167 12.5 11.9C12.5 12.4833 12.3056 12.9792 11.9167 13.3875C11.5278 13.7958 11.0556 14 10.5 14Z" fill="currentColor"/>
</svg>
