<svg width="16" height="16" viewBox="0 0 16 16" fill="none" xmlns="http://www.w3.org/2000/svg">
<path d="M12.7764 15.9609C12.113 15.9609 11.5491 15.7287 11.0847 15.2644C10.6203 14.8 10.3881 14.2361 10.3881 13.5727C10.3881 13.493 10.408 13.3073 10.4478 13.0154L4.85523 9.75141C4.64294 9.95043 4.39748 10.1063 4.11885 10.2191C3.84021 10.3319 3.54168 10.3883 3.22324 10.3883C2.55983 10.3883 1.99593 10.1561 1.53154 9.6917C1.06715 9.22731 0.834961 8.66341 0.834961 8C0.834961 7.33659 1.06715 6.77269 1.53154 6.3083C1.99593 5.84391 2.55983 5.61172 3.22324 5.61172C3.54168 5.61172 3.84021 5.66811 4.11885 5.78089C4.39748 5.89367 4.64294 6.04957 4.85523 6.24859L10.4478 2.98461C10.4213 2.89173 10.4047 2.80217 10.398 2.71593C10.3914 2.62968 10.3881 2.53349 10.3881 2.42734C10.3881 1.76393 10.6203 1.20003 11.0847 0.735645C11.5491 0.271256 12.113 0.0390625 12.7764 0.0390625C13.4398 0.0390625 14.0037 0.271256 14.4681 0.735645C14.9325 1.20003 15.1646 1.76393 15.1646 2.42734C15.1646 3.09076 14.9325 3.65465 14.4681 4.11904C14.0037 4.58343 13.4398 4.81563 12.7764 4.81563C12.4579 4.81563 12.1594 4.75923 11.8808 4.64646C11.6021 4.53368 11.3567 4.37777 11.1444 4.17875L5.55182 7.44273C5.57835 7.53561 5.59494 7.62517 5.60157 7.71142C5.60821 7.79766 5.61152 7.89385 5.61152 8C5.61152 8.10615 5.60821 8.20234 5.60157 8.28858C5.59494 8.37483 5.57835 8.46439 5.55182 8.55727L11.1444 11.8212C11.3567 11.6222 11.6021 11.4663 11.8808 11.3535C12.1594 11.2408 12.4579 11.1844 12.7764 11.1844C13.4398 11.1844 14.0037 11.4166 14.4681 11.881C14.9325 12.3453 15.1646 12.9092 15.1646 13.5727C15.1646 14.2361 14.9325 14.8 14.4681 15.2644C14.0037 15.7287 13.4398 15.9609 12.7764 15.9609Z" fill="currentColor"/>
</svg>
