<svg width="37" height="25" viewBox="0 0 37 25" fill="none" xmlns="http://www.w3.org/2000/svg">
<path d="M7.57408 25C6.28574 25 5.19319 24.5495 4.29642 23.6486C3.39995 22.748 2.95172 21.6544 2.95172 20.3677H0.5V2.86122C0.5 2.04592 0.772954 1.36522 1.31886 0.819135C1.86477 0.273045 2.54524 0 3.36026 0H26.7855V6.40342H30.8714L37 14.6457V20.3677H34.1397C34.1397 21.6544 33.6888 22.748 32.7871 23.6486C31.885 24.5495 30.7898 25 29.5014 25C28.2128 25 27.1202 24.5495 26.2238 23.6486C25.327 22.748 24.8786 21.6544 24.8786 20.3677H12.2128C12.2128 21.6621 11.7618 22.7576 10.8597 23.6544C9.95793 24.5515 8.86272 25 7.57408 25ZM7.58205 23.2289C8.37878 23.2289 9.05467 22.9513 9.60973 22.396C10.1648 21.8408 10.4423 21.1647 10.4423 20.3677C10.4423 19.5707 10.1648 18.8946 9.60973 18.3393C9.05467 17.7841 8.37878 17.5065 7.58205 17.5065C6.78532 17.5065 6.10943 17.7841 5.55437 18.3393C4.99961 18.8946 4.72223 19.5707 4.72223 20.3677C4.72223 21.1647 4.99961 21.8408 5.55437 22.396C6.10943 22.9513 6.78532 23.2289 7.58205 23.2289ZM2.27051 18.5966H3.41471C3.66671 17.8155 4.17972 17.1434 4.95372 16.5802C5.72773 16.017 6.60384 15.7354 7.58205 15.7354C8.51511 15.7354 9.38001 16.0114 10.1767 16.5634C10.9735 17.115 11.4978 17.7928 11.7498 18.5966H25.015V1.7711H3.36026C3.0879 1.7711 2.83811 1.8846 2.61089 2.1116C2.38397 2.33859 2.27051 2.58847 2.27051 2.86122V18.5966ZM29.5094 23.2289C30.3061 23.2289 30.9819 22.9513 31.5366 22.396C32.0917 21.8408 32.3692 21.1647 32.3692 20.3677C32.3692 19.5707 32.0917 18.8946 31.5366 18.3393C30.9819 17.7841 30.3061 17.5065 29.5094 17.5065C28.7127 17.5065 28.0368 17.7841 27.4817 18.3393C26.9267 18.8946 26.6491 19.5707 26.6491 20.3677C26.6491 21.1647 26.9267 21.8408 27.4817 22.396C28.0368 22.9513 28.7127 23.2289 29.5094 23.2289ZM26.7855 15.0544H35.1272L29.918 8.17452H26.7855V15.0544Z" fill="currentColor"/>
</svg>
