<svg width="16" height="14" viewBox="0 0 16 14" fill="none" xmlns="http://www.w3.org/2000/svg">
<path d="M15.761 10.6002C15.9149 10.4574 16.0003 10.2669 16.0003 10.0606C16.0003 9.85435 15.9149 9.6798 15.761 9.52111C15.4361 9.21961 14.9232 9.21961 14.6154 9.52111L12.5808 11.4253V0.761688C12.5808 0.349107 12.2218 0 11.7601 0C11.2985 0 10.9394 0.333239 10.9394 0.761688L10.9394 11.4253L8.90481 9.53698C8.57996 9.23548 8.06703 9.23548 7.75927 9.53698C7.43441 9.83848 7.43441 10.3145 7.75927 10.6002L11.1788 13.7739C11.5037 14.0754 12.0166 14.0754 12.3243 13.7739L15.761 10.6002Z" fill="currentColor"/>
<path d="M0.243642 3.39598C-0.081214 3.69714 -0.081214 4.17266 0.243642 4.45797C0.568498 4.75913 1.08143 4.75913 1.38919 4.45797L3.42381 2.57175L3.42381 13.2392C3.42381 13.6513 3.78286 14 4.2445 14C4.68904 14 5.06519 13.6671 5.06519 13.2392L5.06519 2.5876L7.09981 4.47382C7.42467 4.77498 7.9376 4.77498 8.24536 4.47382C8.39923 4.33116 8.48472 4.14096 8.48472 3.9349C8.48472 3.72884 8.39923 3.55449 8.24536 3.39598L4.80872 0.22587C4.48387 -0.0752897 3.97094 -0.0752897 3.66318 0.22587L0.243642 3.39598Z" fill="currentColor"/>
</svg>
