<svg width="28" height="28" viewBox="0 0 28 28" fill="none" xmlns="http://www.w3.org/2000/svg">
<path d="M6.98143 26.0788C6.79375 26.198 6.55553 26.0312 6.60325 25.8141L8.23858 18.3724C8.37279 17.7616 8.17092 17.1256 7.70902 16.7041L7.20345 17.2581L7.70902 16.7041L2.18013 11.6584C2.01963 11.512 2.10952 11.2446 2.3259 11.2248L9.53914 10.5657C10.1934 10.5059 10.7591 10.0847 11.0039 9.47501L13.768 2.59071C13.852 2.38157 14.148 2.38158 14.232 2.59071L16.9961 9.47501C17.2409 10.0847 17.8066 10.5059 18.4609 10.5657L25.6741 11.2248C25.8905 11.2446 25.9804 11.512 25.8199 11.6584L20.291 16.7041C19.8291 17.1256 19.6272 17.7616 19.7614 18.3724L21.3968 25.8141C21.4445 26.0312 21.2062 26.198 21.0186 26.0788L14.9381 22.2178C14.3655 21.8542 13.6345 21.8542 13.0619 22.2178L6.98143 26.0788Z" stroke="currentColor" stroke-width="1.5"/>
</svg>
