<svg width="26" height="24" viewBox="0 0 26 24" fill="none" xmlns="http://www.w3.org/2000/svg">
<path d="M6.99352 22.8154C6.23384 23.2607 5.3111 22.5777 5.51503 21.7211L6.9423 15.7257C7.0298 15.3582 6.9027 14.9727 6.61376 14.7293L1.84949 10.7159C1.16769 10.1416 1.52139 9.02957 2.40971 8.95465L8.76515 8.41859C9.13156 8.38769 9.45144 8.15819 9.59811 7.821L12.083 2.10822C12.4316 1.30671 13.5684 1.30671 13.917 2.10822L16.4019 7.821C16.5486 8.15819 16.8684 8.38769 17.2348 8.41859L23.5903 8.95465C24.4786 9.02957 24.8323 10.1416 24.1505 10.7159L19.3862 14.7293C19.0973 14.9727 18.9702 15.3582 19.0577 15.7257L20.485 21.7211C20.6889 22.5777 19.7662 23.2607 19.0065 22.8154L13.5057 19.5911C13.1934 19.4081 12.8066 19.4081 12.4943 19.5911L6.99352 22.8154Z" fill="currentColor"/>
</svg>
