<svg width="95" height="35" viewBox="0 0 95 35" fill="none" xmlns="http://www.w3.org/2000/svg">
<path d="M47.2971 15.8609C46.6416 15.6087 45.7842 15.5332 44.8512 15.5332H39.6564V13.9193H48.5832V11.1455H36V23.1486H44.5234C45.7086 23.1486 46.5909 23.0478 47.2468 22.7954C48.6337 22.2659 49.5667 20.9799 49.5667 19.2904C49.5667 17.5758 48.6841 16.3905 47.2971 15.8609ZM45.4815 20.0217C45.2799 20.0974 45.0025 20.1225 44.6493 20.1225H39.6564V18.206H44.6493C45.0529 18.206 45.3806 18.2314 45.6329 18.3574C45.9354 18.5087 46.0868 18.7861 46.0868 19.139C46.0868 19.4921 45.9103 19.8704 45.4815 20.0217Z" fill="#333333"/>
<path d="M59.8189 11.1455H54.473L49.5557 23.1486H53.6913L54.3721 21.4086H59.9197L60.6259 23.1486H64.7363L59.8189 11.1455ZM55.2798 18.7608L57.02 13.9193H57.2973L59.0372 18.7608H55.2798Z" fill="#333333"/>
<path d="M69.4424 18.6854V23.1487H65.7861V11.1455H69.4424V15.5333H75.3179V11.1455H78.9744V23.1487H75.3179V18.6854H69.4424Z" fill="#333333"/>
<path d="M84.762 18.6098V23.1487H81.1055V11.1455H84.762V15.6594H85.7706L90.1836 11.1455H94.7728L88.9226 16.8949L94.9999 23.1487H90.133L85.7706 18.6098H84.762Z" fill="#333333"/>
<path d="M0 4.14551H29V17.7304C29 21.4693 27.0054 24.9244 23.7676 26.794L14.5001 32.1455L5.23246 26.794C1.99457 24.9244 3.32377e-06 21.4693 3.32377e-06 17.7304L0 4.14551Z" fill="#FFDD2D"/>
<path fill-rule="evenodd" clip-rule="evenodd" d="M8 11.1455V15.6532C8.6164 14.9571 9.73715 14.4861 11.0186 14.4861H12.4111V19.7262C12.4111 21.1203 12.0323 22.4854 11.4703 23.1566H17.5276C16.9668 22.4847 16.5889 21.1213 16.5889 19.7289V14.4861H17.9815C19.2629 14.4861 20.3836 14.9571 21 15.6532V11.1455H8Z" fill="#333333"/>
</svg>
