<svg width="27" height="23" viewBox="0 0 27 23" fill="none" xmlns="http://www.w3.org/2000/svg">
<path d="M1.14251 10.766C1.20277 10.7359 1.26306 10.7072 1.32181 10.6801C2.34322 10.2071 3.37819 9.76419 4.41165 9.32128C4.46739 9.32128 4.56077 9.25649 4.61349 9.2354C4.69334 9.20075 4.7732 9.16761 4.85304 9.13296C5.0067 9.06668 5.16037 9.0019 5.31253 8.93561C5.61986 8.80455 5.92565 8.67347 6.23298 8.54241L8.07241 7.75451C9.2987 7.23025 10.5265 6.70448 11.7528 6.18022C12.9791 5.65596 14.2069 5.13019 15.4332 4.60593C16.6595 4.08166 17.8873 3.5559 19.1136 3.03164C20.3398 2.50738 21.5677 1.98161 22.794 1.45735C23.0666 1.33984 23.3619 1.16508 23.6542 1.11386C23.8997 1.07017 24.1392 0.985814 24.3863 0.939113C24.8548 0.850229 25.3716 0.814077 25.8205 1.00842C25.9757 1.07621 26.1188 1.17112 26.2378 1.29013C26.8073 1.85356 26.7274 2.77854 26.6069 3.57096C25.7678 9.09379 24.9286 14.6181 24.088 20.141C23.9735 20.8987 23.8168 21.7303 23.2188 22.2094C22.7126 22.6146 21.9925 22.6598 21.3673 22.4881C20.7421 22.3148 20.1907 21.9518 19.6499 21.5947C17.4067 20.1093 15.162 18.6239 12.9188 17.1385C12.3855 16.786 11.792 16.325 11.798 15.6847C11.801 15.2991 12.0315 14.9556 12.2665 14.6498C14.2159 12.1068 17.0286 10.3593 19.1211 7.93379C19.4164 7.59181 19.6484 6.97415 19.2431 6.7768C19.0021 6.65929 18.7249 6.81897 18.5049 6.97113C15.739 8.89192 12.9746 10.8142 10.2087 12.735C9.30626 13.3617 8.36018 14.0065 7.27249 14.1601C6.29929 14.2987 5.32007 14.0276 4.37851 13.7504C3.5891 13.5184 2.80118 13.2803 2.01629 13.0348C1.59899 12.9052 1.16813 12.7651 0.845736 12.4714C0.523345 12.1776 0.338071 11.6835 0.532409 11.2918C0.654436 11.0462 0.89096 10.891 1.13953 10.7645L1.14251 10.766Z" fill="currentColor"/>
</svg>
