<svg width="44" height="43" viewBox="0 0 44 43" fill="none" xmlns="http://www.w3.org/2000/svg">
<path d="M22.4201 0H22.3221C10.475 0 0.871094 9.60396 0.871094 21.451V21.549C0.871094 33.396 10.475 43 22.3221 43H22.4201C34.2672 43 43.8711 33.396 43.8711 21.549V21.451C43.8711 9.60396 34.2672 0 22.4201 0Z" fill="white"/>
<path d="M9.01556 20.766C9.07582 20.7359 9.13611 20.7072 9.19486 20.6801C10.2163 20.2071 11.2512 19.7642 12.2847 19.3213C12.3404 19.3213 12.4338 19.2565 12.4865 19.2354C12.5664 19.2008 12.6462 19.1676 12.7261 19.133C12.8797 19.0667 13.0334 19.0019 13.1856 18.9356C13.4929 18.8045 13.7987 18.6735 14.106 18.5424L15.9455 17.7545C17.1717 17.2303 18.3996 16.7045 19.6259 16.1802C20.8522 15.656 22.0799 15.1302 23.3062 14.6059C24.5325 14.0817 25.7603 13.5559 26.9866 13.0316C28.2129 12.5074 29.4407 11.9816 30.667 11.4573C30.9397 11.3398 31.2349 11.1651 31.5272 11.1139C31.7728 11.0702 32.0123 10.9858 32.2593 10.9391C32.7279 10.8502 33.2446 10.8141 33.6935 11.0084C33.8487 11.0762 33.9918 11.1711 34.1108 11.2901C34.6803 11.8536 34.6004 12.7785 34.4799 13.571C33.6408 19.0938 32.8017 24.6181 31.9611 30.141C31.8466 30.8987 31.6899 31.7303 31.0918 32.2094C30.5856 32.6146 29.8655 32.6598 29.2403 32.4881C28.6151 32.3148 28.0638 31.9518 27.5229 31.5947C25.2797 30.1093 23.0351 28.6239 20.7919 27.1385C20.2586 26.786 19.665 26.325 19.6711 25.6847C19.6741 25.2991 19.9046 24.9556 20.1396 24.6498C22.089 22.1068 24.9016 20.3593 26.9941 17.9338C27.2894 17.5918 27.5214 16.9741 27.1162 16.7768C26.8751 16.6593 26.5979 16.819 26.378 16.9711C23.612 18.8919 20.8476 20.8142 18.0817 22.735C17.1793 23.3617 16.2332 24.0065 15.1455 24.1601C14.1723 24.2987 13.1931 24.0276 12.2516 23.7504C11.4621 23.5184 10.6742 23.2803 9.88934 23.0348C9.47204 22.9052 9.04117 22.7651 8.71878 22.4714C8.39639 22.1776 8.21112 21.6835 8.40546 21.2918C8.52748 21.0462 8.76401 20.891 9.01258 20.7645L9.01556 20.766Z" fill="#091B51"/>
</svg>
