<svg width="28" height="28" viewBox="0 0 28 28" fill="none" xmlns="http://www.w3.org/2000/svg">
<path d="M14.0319 0H13.9681C6.25373 0 0 6.25374 0 13.9681V14.0319C0 21.7463 6.25373 28 13.9681 28H14.0319C21.7463 28 28 21.7463 28 14.0319V13.9681C28 6.25374 21.7463 0 14.0319 0Z" fill="#091B51"/>
<path d="M5.30336 13.5222C5.3426 13.5025 5.38186 13.4839 5.42012 13.4662C6.08522 13.1582 6.75915 12.8698 7.4321 12.5814C7.4684 12.5814 7.5292 12.5392 7.56354 12.5255C7.61553 12.5029 7.66753 12.4813 7.71952 12.4588C7.81958 12.4156 7.91965 12.3734 8.01872 12.3303C8.21884 12.2449 8.41797 12.1596 8.61809 12.0742L9.81586 11.5612C10.6144 11.2198 11.4139 10.8774 12.2124 10.5361C13.0109 10.1947 13.8104 9.85232 14.6089 9.51094C15.4074 9.16956 16.2069 8.82721 17.0054 8.48583C17.804 8.14445 18.6035 7.80209 19.402 7.46071C19.5795 7.38419 19.7718 7.27039 19.9621 7.23704C20.122 7.20859 20.278 7.15366 20.4389 7.12325C20.7439 7.06537 21.0804 7.04183 21.3727 7.16838C21.4738 7.21252 21.567 7.27432 21.6445 7.35182C22.0153 7.71871 21.9633 8.32102 21.8848 8.83701C21.3384 12.4333 20.792 16.0305 20.2446 19.6268C20.1701 20.1202 20.068 20.6617 19.6786 20.9737C19.349 21.2375 18.8801 21.267 18.473 21.1551C18.0659 21.0423 17.7068 20.8059 17.3547 20.5734C15.894 19.6062 14.4323 18.6389 12.9717 17.6717C12.6244 17.4421 12.2379 17.142 12.2418 16.725C12.2438 16.4739 12.3939 16.2503 12.5469 16.0511C13.8163 14.3952 15.6478 13.2573 17.0103 11.6779C17.2026 11.4552 17.3537 11.053 17.0898 10.9245C16.9329 10.848 16.7523 10.952 16.6091 11.0511C14.808 12.3018 13.008 13.5535 11.2069 14.8043C10.6193 15.2124 10.0032 15.6322 9.29498 15.7323C8.66127 15.8225 8.02363 15.646 7.41052 15.4655C6.89649 15.3144 6.38342 15.1594 5.87234 14.9995C5.60061 14.9151 5.32004 14.8239 5.11012 14.6326C4.90019 14.4413 4.77954 14.1196 4.90609 13.8645C4.98555 13.7046 5.13956 13.6036 5.30142 13.5212L5.30336 13.5222Z" fill="white"/>
</svg>
