<svg width="15" height="17" viewBox="0 0 15 17" fill="none" xmlns="http://www.w3.org/2000/svg">
<path d="M2.68359 16.5C2.20234 16.5 1.79036 16.3259 1.44766 15.9778C1.10495 15.6296 0.933594 15.2111 0.933594 14.7222V3.16667C0.685677 3.16667 0.477865 3.08148 0.310156 2.91111C0.142448 2.74074 0.0585938 2.52963 0.0585938 2.27778C0.0585938 2.02593 0.142448 1.81481 0.310156 1.64444C0.477865 1.47407 0.685677 1.38889 0.933594 1.38889H4.43359C4.43359 1.13704 4.51745 0.925926 4.68516 0.755556C4.85286 0.585185 5.06068 0.5 5.30859 0.5H8.80859C9.05651 0.5 9.26432 0.585185 9.43203 0.755556C9.59974 0.925926 9.68359 1.13704 9.68359 1.38889H13.1836C13.4315 1.38889 13.6393 1.47407 13.807 1.64444C13.9747 1.81481 14.0586 2.02593 14.0586 2.27778C14.0586 2.52963 13.9747 2.74074 13.807 2.91111C13.6393 3.08148 13.4315 3.16667 13.1836 3.16667V14.7222C13.1836 15.2111 13.0122 15.6296 12.6695 15.9778C12.3268 16.3259 11.9148 16.5 11.4336 16.5H2.68359ZM5.30859 12.9444C5.55651 12.9444 5.76432 12.8593 5.93203 12.6889C6.09974 12.5185 6.18359 12.3074 6.18359 12.0556V5.83333C6.18359 5.58148 6.09974 5.37037 5.93203 5.2C5.76432 5.02963 5.55651 4.94444 5.30859 4.94444C5.06068 4.94444 4.85286 5.02963 4.68516 5.2C4.51745 5.37037 4.43359 5.58148 4.43359 5.83333V12.0556C4.43359 12.3074 4.51745 12.5185 4.68516 12.6889C4.85286 12.8593 5.06068 12.9444 5.30859 12.9444ZM8.80859 12.9444C9.05651 12.9444 9.26432 12.8593 9.43203 12.6889C9.59974 12.5185 9.68359 12.3074 9.68359 12.0556V5.83333C9.68359 5.58148 9.59974 5.37037 9.43203 5.2C9.26432 5.02963 9.05651 4.94444 8.80859 4.94444C8.56068 4.94444 8.35287 5.02963 8.18516 5.2C8.01745 5.37037 7.93359 5.58148 7.93359 5.83333V12.0556C7.93359 12.3074 8.01745 12.5185 8.18516 12.6889C8.35287 12.8593 8.56068 12.9444 8.80859 12.9444Z" fill="currentColor"/>
</svg>
