<svg width="69" height="22" viewBox="0 0 69 22" fill="none" xmlns="http://www.w3.org/2000/svg">
<path d="M63.8004 0.87207H59.5004C58.2004 0.87207 57.2004 1.27207 56.6004 2.57207L48.4004 21.2721H54.2004C54.2004 21.2721 55.2004 18.7721 55.4004 18.1721C56.0004 18.1721 61.7004 18.1721 62.5004 18.1721C62.7004 18.8721 63.2004 21.1721 63.2004 21.1721H68.4004L63.8004 0.87207ZM57.0004 13.9721C57.5004 12.7721 59.2004 8.27207 59.2004 8.27207C59.2004 8.37207 59.7004 7.07207 59.9004 6.37207L60.3004 8.17207C60.3004 8.17207 61.4004 13.0721 61.6004 14.0721H57.0004V13.9721Z" fill="#3362AB"/>
<path d="M48.8004 14.5723C48.8004 18.7723 45.0004 21.5723 39.1004 21.5723C36.6004 21.5723 34.2004 21.0723 32.9004 20.4723L33.7004 15.8723L34.4004 16.1723C36.2004 16.9723 37.4004 17.2723 39.6004 17.2723C41.2004 17.2723 42.9004 16.6723 42.9004 15.2723C42.9004 14.3723 42.2004 13.7723 40.0004 12.7723C37.9004 11.7723 35.1004 10.1723 35.1004 7.27227C35.1004 3.27227 39.0004 0.572266 44.5004 0.572266C46.6004 0.572266 48.4004 0.972266 49.5004 1.47227L48.7004 5.87227L48.3004 5.47227C47.3004 5.07227 46.0004 4.67227 44.1004 4.67227C42.0004 4.77227 41.0004 5.67227 41.0004 6.47227C41.0004 7.37227 42.2004 8.07227 44.1004 8.97227C47.3004 10.4723 48.8004 12.1723 48.8004 14.5723Z" fill="#3362AB"/>
<path d="M0 1.07188L0.1 0.671875H8.7C9.9 0.671875 10.8 1.07187 11.1 2.37187L13 11.3719C11.1 6.57187 6.7 2.67188 0 1.07188Z" fill="#F9B50B"/>
<path d="M25.1 0.872461L16.4 21.1725H10.5L5.5 4.17246C9.1 6.47246 12.1 10.0725 13.2 12.5725L13.8 14.6725L19.2 0.772461H25.1V0.872461Z" fill="#3362AB"/>
<path d="M27.4004 0.772461H32.9004L29.4004 21.1725H23.9004L27.4004 0.772461Z" fill="#3362AB"/>
</svg>
