<svg width="19" height="19" viewBox="0 0 19 19" fill="none" xmlns="http://www.w3.org/2000/svg">
<path fill-rule="evenodd" clip-rule="evenodd" d="M3.95833 4.94824C3.38093 4.94824 2.82719 5.17761 2.4189 5.5859C2.01062 5.99418 1.78125 6.54793 1.78125 7.12533V14.2503C1.78125 14.8277 2.01062 15.3815 2.4189 15.7898C2.82719 16.198 3.38093 16.4274 3.95833 16.4274H15.0417C15.6191 16.4274 16.1728 16.198 16.5811 15.7898C16.9894 15.3815 17.2188 14.8277 17.2188 14.2503V7.12533C17.2188 6.54793 16.9894 5.99418 16.5811 5.5859C16.1728 5.17761 15.6191 4.94824 15.0417 4.94824H3.95833ZM13.0625 9.69824C12.8 9.69824 12.5483 9.8025 12.3628 9.98808C12.1772 10.1737 12.0729 10.4254 12.0729 10.6878C12.0729 10.9503 12.1772 11.202 12.3628 11.3876C12.5483 11.5731 12.8 11.6774 13.0625 11.6774C13.325 11.6774 13.5767 11.5731 13.7622 11.3876C13.9478 11.202 14.0521 10.9503 14.0521 10.6878C14.0521 10.4254 13.9478 10.1737 13.7622 9.98808C13.5767 9.8025 13.325 9.69824 13.0625 9.69824Z" fill="currentColor"/>
<path d="M13.0506 2.42986C13.285 2.36739 13.5306 2.35962 13.7685 2.40714C14.0064 2.45467 14.2302 2.55621 14.4226 2.70394C14.615 2.85167 14.7709 3.04163 14.8782 3.25916C14.9856 3.4767 15.0415 3.71599 15.0417 3.95857H7.125L13.0506 2.42986Z" fill="currentColor"/>
</svg>
