<svg width="104" height="17" viewBox="0 0 104 17" fill="none" xmlns="http://www.w3.org/2000/svg">
<path d="M12.1957 2.80628V16.8377H10.1701V12.1113C9.66375 12.5615 9.07295 12.9061 8.39776 13.1452C7.72256 13.3844 6.99813 13.5039 6.22447 13.5039C4.97254 13.5039 3.87535 13.2859 2.93288 12.8498C1.99042 12.4138 1.26599 11.7948 0.759596 10.993C0.253199 10.1912 0 9.25582 0 8.18676V7.84916C0 6.7801 0.253199 5.8517 0.759596 5.06397C1.26599 4.26218 1.99042 3.64325 2.93288 3.20718C3.87535 2.77112 4.97254 2.55309 6.22447 2.55309C6.99813 2.55309 7.72959 2.67969 8.41886 2.93288C9.10812 3.18608 9.72002 3.54478 10.2545 4.00898L10.3178 2.80628H12.1957ZM6.24557 11.6471C7.0755 11.6471 7.83509 11.4994 8.52435 11.204C9.22768 10.8946 9.77628 10.4866 10.1701 9.98025V6.05567C9.77628 5.54927 9.22768 5.14837 8.52435 4.85297C7.83509 4.55758 7.0755 4.40988 6.24557 4.40988C4.95144 4.40988 3.93161 4.71934 3.18608 5.33827C2.45462 5.94314 2.08889 6.7801 2.08889 7.84916V8.18676C2.08889 9.25582 2.45462 10.0998 3.18608 10.7187C3.93161 11.3377 4.95144 11.6471 6.24557 11.6471Z" fill="#F1F4F8"/>
<path d="M26.7749 2.80628V13.2507H24.897L24.8126 11.9003C23.7717 12.9413 22.4213 13.4758 20.7615 13.5039C18.9328 13.5039 17.5472 13.0538 16.6048 12.1535C15.6764 11.2392 15.2122 9.90288 15.2122 8.14456V2.80628H17.2167V8.14456C17.2167 9.26988 17.5332 10.135 18.1662 10.7398C18.8132 11.3447 19.7416 11.6471 20.9514 11.6471C21.7813 11.6471 22.5339 11.4572 23.2091 11.0774C23.8983 10.6976 24.4117 10.1912 24.7493 9.55825V2.80628H26.7749Z" fill="#F1F4F8"/>
<path d="M42.8587 11.4572V13.2507H41.4661C40.7768 13.2507 40.2001 13.1171 39.7359 12.8498C39.2717 12.5826 38.9481 12.2028 38.7653 11.7104C38.2026 12.3153 37.5274 12.7654 36.7397 13.0608C35.952 13.3562 35.0236 13.5039 33.9545 13.5039C32.4494 13.5039 31.2889 13.2437 30.473 12.7232C29.6572 12.1887 29.2492 11.4291 29.2492 10.4444C29.2492 9.60045 29.5657 8.92525 30.1987 8.41886C30.8317 7.91246 31.7601 7.59596 32.9839 7.46936L38.6176 6.87856C38.5754 6.09083 38.2448 5.493 37.6259 5.08507C37.007 4.67714 36.1208 4.47318 34.9673 4.47318C33.856 4.47318 32.9698 4.66308 32.3087 5.04287C31.6476 5.42267 31.317 5.92907 31.317 6.56207V6.64646H29.3125V6.56207C29.3125 5.77434 29.5446 5.07804 30.0088 4.47318C30.4871 3.85425 31.1552 3.38302 32.0133 3.05948C32.8714 2.72189 33.8631 2.55309 34.9884 2.55309C36.7749 2.55309 38.1604 2.94695 39.1451 3.73468C40.1297 4.52241 40.6221 5.62664 40.6221 7.04736V10.2967C40.6221 10.6625 40.7346 10.9508 40.9597 11.1618C41.1847 11.3588 41.5083 11.4572 41.9303 11.4572H42.8587ZM33.9123 11.7104C35.0517 11.7104 36.0293 11.5346 36.8452 11.1829C37.661 10.8172 38.2518 10.3038 38.6176 9.64265V8.52435L33.427 9.07295C32.6955 9.14329 32.1469 9.29098 31.7812 9.51605C31.4295 9.74111 31.2537 10.0506 31.2537 10.4444C31.2537 11.2884 32.1399 11.7104 33.9123 11.7104Z" fill="#F1F4F8"/>
<path d="M50.3453 2.55309C52.174 2.55309 53.5525 3.01025 54.4809 3.92458C55.4234 4.82484 55.8946 6.15413 55.8946 7.91246V13.2507H53.8901V7.91246C53.8901 6.77306 53.5666 5.90797 52.9195 5.31717C52.2865 4.71231 51.3651 4.40988 50.1554 4.40988C49.3255 4.40988 48.5659 4.59978 47.8766 4.97957C47.2014 5.35937 46.695 5.86577 46.3574 6.49877V13.2507H44.3319V2.80628H46.2097L46.2941 4.15668C47.3351 3.11575 48.6855 2.58122 50.3453 2.55309Z" fill="#F1F4F8"/>
<path d="M62.6335 4.57868V9.85365C62.6335 10.3741 62.7812 10.775 63.0766 11.0563C63.372 11.3236 63.787 11.4572 64.3215 11.4572H66.8113V13.2507H64.1527C63.0555 13.2507 62.1904 12.9553 61.5574 12.3645C60.9385 11.7737 60.629 10.9579 60.629 9.91695V4.57868H56.7256V2.80628H60.0593C60.2985 2.80628 60.4602 2.76408 60.5446 2.67969C60.629 2.58122 60.6712 2.41945 60.6712 2.19439V0H62.6335V2.80628H67.4443V4.57868H62.6335Z" fill="#F1F4F8"/>
<path d="M80.4742 2.80628V13.2507H78.5963L78.5119 11.9003C77.4709 12.9413 76.1205 13.4758 74.4607 13.5039C72.632 13.5039 71.2465 13.0538 70.304 12.1535C69.3756 11.2392 68.9114 9.90288 68.9114 8.14456V2.80628H70.9159V8.14456C70.9159 9.26988 71.2324 10.135 71.8654 10.7398C72.5125 11.3447 73.4409 11.6471 74.6506 11.6471C75.4805 11.6471 76.2331 11.4572 76.9083 11.0774C77.5975 10.6976 78.111 10.1912 78.4486 9.55825V2.80628H80.4742Z" fill="#F1F4F8"/>
<path d="M98.4921 2.55309C100.194 2.55309 101.495 3.01025 102.396 3.92458C103.296 4.82484 103.746 6.13303 103.746 7.84916V13.2507H101.72V7.84916C101.72 6.7379 101.432 5.88687 100.855 5.29607C100.279 4.70527 99.4557 4.40988 98.3866 4.40988C97.5708 4.40988 96.8112 4.60681 96.1078 5.00067C95.4186 5.39454 94.8911 5.915 94.5254 6.56207C94.5957 7.0122 94.6309 7.44123 94.6309 7.84916V13.2507H92.6264V7.84916C92.6264 6.75196 92.338 5.90797 91.7613 5.31717C91.1845 4.71231 90.3616 4.40988 89.2926 4.40988C88.4767 4.40988 87.7312 4.60681 87.056 5.00067C86.3808 5.38047 85.8744 5.8939 85.5368 6.54097V13.2507H83.5323V2.80628H85.4102L85.4735 4.15668C85.9799 3.63621 86.5707 3.24235 87.2459 2.97508C87.9352 2.69375 88.6807 2.55309 89.4825 2.55309C90.5234 2.55309 91.4166 2.73595 92.1622 3.10168C92.9077 3.45335 93.4844 3.97381 93.8924 4.66308C94.441 3.98788 95.1021 3.46741 95.8757 3.10168C96.6635 2.73595 97.5356 2.55309 98.4921 2.55309Z" fill="#F1F4F8"/>
</svg>
