<svg width="120" height="26" viewBox="0 0 120 26" fill="none" xmlns="http://www.w3.org/2000/svg">
<path d="M111.89 7.84302H107.242C106.578 7.84302 106.038 8.39095 106.038 9.06566C106.038 9.74037 106.578 10.2883 107.242 10.2883H111.89C112.554 10.2883 113.094 9.74037 113.094 9.06566C113.094 8.39095 112.554 7.84302 111.89 7.84302Z" fill="#EE4723"/>
<path d="M18.7449 7.84277H14.7576C9.56817 7.84277 5.34595 12.1296 5.34595 17.3983V24.7084C5.34595 25.3831 5.88563 25.931 6.55018 25.931C7.21473 25.931 7.75441 25.3831 7.75441 24.7084V17.3983C7.75441 13.4768 10.8952 10.2881 14.7576 10.2881H18.7449C19.4094 10.2881 19.9491 9.74013 19.9491 9.06542C19.9491 8.39071 19.4094 7.84277 18.7449 7.84277Z" fill="white"/>
<path d="M51.4984 7.84294C50.8338 7.84294 50.2942 8.39087 50.2942 9.06558C50.2942 9.74029 50.8338 10.2882 51.4984 10.2882C55.0815 10.2882 57.9979 13.2492 57.9979 16.8871C57.9979 20.5249 55.0815 23.4859 51.4984 23.4859C47.9153 23.4859 44.9989 20.5249 44.9989 16.8871V2.11864C44.9989 1.44393 44.4592 0.895996 43.7947 0.895996C43.1301 0.895996 42.5905 1.44393 42.5905 2.11864V16.8871C42.5905 21.8743 46.5862 25.9291 51.4963 25.9291C56.4063 25.9291 60.4021 21.8722 60.4021 16.8871C60.4021 11.9019 56.4063 7.84294 51.4963 7.84294H51.4984Z" fill="white"/>
<path d="M93.1914 23.4837H91.9554C88.3724 23.4837 85.456 20.5227 85.456 16.8849V2.11644C85.456 1.44173 84.9163 0.893799 84.2517 0.893799C83.5872 0.893799 83.0475 1.44173 83.0475 2.11644V16.8849C83.0475 21.8721 87.0433 25.9269 91.9533 25.9269H93.1893C93.8538 25.9269 94.3935 25.3789 94.3935 24.7042C94.3935 24.0295 93.8538 23.4816 93.1893 23.4816L93.1914 23.4837Z" fill="white"/>
<path d="M93.1915 7.84277H89.056C88.3915 7.84277 87.8518 8.39071 87.8518 9.06542C87.8518 9.74013 88.3915 10.2881 89.056 10.2881H93.1915C93.856 10.2881 94.3957 9.74013 94.3957 9.06542C94.3957 8.39071 93.856 7.84277 93.1915 7.84277Z" fill="white"/>
<path d="M38.9735 11.9534C38.3089 11.9534 37.7692 12.5013 37.7692 13.176V16.8869C37.7692 20.5248 34.8528 23.4858 31.2698 23.4858C27.6867 23.4858 24.7703 20.5248 24.7703 16.8869V13.176C24.7703 12.5013 24.2306 11.9534 23.566 11.9534C22.9015 11.9534 22.3618 12.5013 22.3618 13.176V16.8869C22.3618 21.8742 26.3576 25.9289 31.2676 25.9289C36.1777 25.9289 40.1735 21.872 40.1735 16.8869V13.176C40.1735 12.5013 39.6338 11.9534 38.9692 11.9534H38.9735Z" fill="white"/>
<path d="M109.568 15.6623H101.864C100.404 15.6623 99.2168 14.4569 99.2168 12.9742C99.2168 11.4916 100.404 10.2861 101.864 10.2861C102.529 10.2861 103.069 9.73818 103.069 9.06347C103.069 8.38875 102.529 7.84082 101.864 7.84082C99.0771 7.84082 96.8083 10.1443 96.8083 12.9742C96.8083 15.8041 99.0771 18.1076 101.864 18.1076H109.568C111.028 18.1076 112.216 19.3131 112.216 20.7957C112.216 22.2783 111.028 23.4838 109.568 23.4838H99.1935C98.529 23.4838 97.9893 24.0317 97.9893 24.7064C97.9893 25.3812 98.529 25.9291 99.1935 25.9291H109.568C112.355 25.9291 114.624 23.6256 114.624 20.7957C114.624 17.9658 112.355 15.6623 109.568 15.6623Z" fill="white"/>
<path d="M71.7269 7.61938C66.8147 7.61938 62.819 11.6762 62.819 16.6635C62.819 16.7065 62.8211 16.7495 62.8253 16.7924C62.8211 16.8354 62.819 16.8784 62.819 16.9214C62.819 21.9086 66.8147 25.9634 71.7269 25.9634C76.6391 25.9634 80.6327 21.9065 80.6327 16.9214C80.6327 16.8784 80.6306 16.8354 80.6264 16.7924C80.6306 16.7495 80.6327 16.7065 80.6327 16.6635C80.6327 11.6762 76.637 7.61938 71.7269 7.61938ZM78.2327 16.7903C78.2285 16.8333 78.2264 16.8762 78.2264 16.9192C78.2264 20.5571 75.31 23.5181 71.7269 23.5181C68.1438 23.5181 65.2274 20.5571 65.2274 16.9192C65.2274 16.8762 65.2253 16.8333 65.2211 16.7903C65.2253 16.7473 65.2274 16.7043 65.2274 16.6614C65.2274 13.0235 68.1438 10.0625 71.7269 10.0625C75.31 10.0625 78.2264 13.0235 78.2264 16.6614C78.2264 16.7043 78.2285 16.7473 78.2327 16.7903Z" fill="white"/>
<path d="M31.2698 0.0214844C26.3577 0.0214844 22.364 4.07834 22.364 9.06347C22.364 9.73818 22.9037 10.2861 23.5682 10.2861C24.2328 10.2861 24.7725 9.73818 24.7725 9.06347C24.7725 5.42561 27.6889 2.46462 31.2719 2.46462C34.855 2.46462 37.7714 5.42561 37.7714 9.06347C37.7714 9.73818 38.3111 10.2861 38.9757 10.2861C39.6402 10.2861 40.1799 9.73818 40.1799 9.06347C40.1799 4.07619 36.1841 0.0214844 31.2741 0.0214844H31.2698Z" fill="#586994"/>
<path d="M71.7269 12.897C71.0624 12.897 70.5227 13.4449 70.5227 14.1196V19.4485C70.5227 20.1233 71.0624 20.6712 71.7269 20.6712C72.3915 20.6712 72.9312 20.1233 72.9312 19.4485V14.1196C72.9312 13.4449 72.3915 12.897 71.7269 12.897Z" fill="#586994"/>
</svg>
