<svg width="120" height="30" viewBox="0 0 120 30" fill="none" xmlns="http://www.w3.org/2000/svg">
<path d="M18.3794 9.07251H13.0961C6.21082 9.07251 0.59021 13.9112 0.59021 19.8386V28.0644C0.59021 28.8144 1.29279 29.4435 2.19208 29.4435C3.09138 29.4435 3.79396 28.8386 3.79396 28.0644V19.8386C3.79396 15.4354 7.95321 11.8306 13.0961 11.8306H18.3794C19.2506 11.8306 19.9813 11.2257 19.9813 10.4515C19.9813 9.67735 19.2506 9.07251 18.3794 9.07251Z" fill="white"/>
<path d="M61.8829 9.07257C61.0117 9.07257 60.281 9.67741 60.281 10.4516C60.281 11.2258 61.0117 11.8306 61.8829 11.8306C66.6323 11.8306 70.5105 15.1693 70.5105 19.2581C70.5105 23.3468 66.6323 26.6855 61.8829 26.6855C57.1335 26.6855 53.2553 23.3468 53.2553 19.2581V2.63709C53.2553 1.88709 52.5246 1.25806 51.6534 1.25806C50.7822 1.25806 50.0515 1.88709 50.0515 2.63709V19.2581C50.0515 24.871 55.363 29.4435 61.8829 29.4435C68.4028 29.4435 73.7143 24.871 73.7143 19.2581C73.7143 13.6452 68.4028 9.07257 61.8829 9.07257Z" fill="white"/>
<path d="M117.246 26.6855H115.616C110.867 26.6855 106.988 23.3468 106.988 19.2581V2.63709C106.988 1.88709 106.286 1.25806 105.386 1.25806C104.487 1.25806 103.785 1.88709 103.785 2.63709V19.2581C103.785 24.871 109.096 29.4435 115.616 29.4435H117.246C118.117 29.4435 118.848 28.8387 118.848 28.0645C118.848 27.2903 118.145 26.6855 117.246 26.6855Z" fill="white"/>
<path d="M117.246 9.07251H111.766C110.895 9.07251 110.164 9.67735 110.164 10.4515C110.164 11.2257 110.867 11.8306 111.766 11.8306H117.246C118.117 11.8306 118.848 11.2257 118.848 10.4515C118.848 9.67735 118.145 9.07251 117.246 9.07251Z" fill="#EE4723"/>
<path d="M45.2459 13.6936C44.3748 13.6936 43.6441 14.2984 43.6441 15.0726V19.2581C43.6441 23.3468 39.7659 26.6855 35.0164 26.6855C30.267 26.6855 26.3888 23.3468 26.3888 19.2581V15.0726C26.3888 14.3226 25.6581 13.6936 24.7869 13.6936C23.9157 13.6936 23.1851 14.2984 23.1851 15.0726V19.2581C23.1851 24.871 28.4965 29.4436 35.0164 29.4436C41.5363 29.4436 46.8478 24.871 46.8478 19.2581V15.0726C46.8478 14.3226 46.1171 13.6936 45.2459 13.6936Z" fill="white"/>
<path d="M88.7214 8.83057C82.2015 8.83057 76.89 13.4031 76.89 19.0161C76.89 24.629 76.89 19.1128 76.89 19.1612C76.89 19.2096 76.89 19.258 76.89 19.3064C76.89 24.9193 82.2015 29.4919 88.7214 29.4919C95.2413 29.4919 100.553 24.9193 100.553 19.3064C100.553 13.6935 100.553 19.2096 100.553 19.1612C100.553 19.1128 100.553 19.0644 100.553 19.0161C100.553 13.4031 95.2413 8.83057 88.7214 8.83057ZM97.3771 19.137C97.3771 19.1854 97.3771 19.2338 97.3771 19.2822C97.3771 23.3709 93.4989 26.7096 88.7495 26.7096C84.0001 26.7096 80.1219 23.3709 80.1219 19.2822C80.1219 15.1935 80.1219 19.1854 80.1219 19.137C80.1219 19.0886 80.1219 19.0402 80.1219 18.9919C80.1219 14.9031 84.0001 11.5644 88.7495 11.5644C93.4989 11.5644 97.3771 14.9031 97.3771 18.9919C97.3771 23.0806 97.3771 19.0886 97.3771 19.137Z" fill="white"/>
<path d="M35.0164 0.266113C28.4965 0.266113 23.1851 4.8387 23.1851 10.4516C23.1851 16.0645 23.9157 11.8306 24.7869 11.8306C25.6581 11.8306 26.3888 11.2258 26.3888 10.4516C26.3888 6.36289 30.267 3.02418 35.0164 3.02418C39.7659 3.02418 43.6441 6.36289 43.6441 10.4516C43.6441 14.5403 44.3748 11.8306 45.2459 11.8306C46.1171 11.8306 46.8478 11.2258 46.8478 10.4516C46.8478 4.8387 41.5363 0.266113 35.0164 0.266113Z" fill="#7D88A5"/>
<path d="M88.7214 14.7581C87.8502 14.7581 87.1195 15.3629 87.1195 16.1371V22.1371C87.1195 22.8871 87.8221 23.5161 88.7214 23.5161C89.6207 23.5161 90.3233 22.9113 90.3233 22.1371V16.1371C90.3233 15.3871 89.6207 14.7581 88.7214 14.7581Z" fill="#7D88A5"/>
</svg>
