<svg width="115" height="30" viewBox="0 0 115 30" fill="none" xmlns="http://www.w3.org/2000/svg">
<path d="M17.6144 9.07251H12.5512C5.95282 9.07251 0.566406 13.9112 0.566406 19.8386V28.0644C0.566406 28.8144 1.23971 29.4435 2.10154 29.4435C2.96336 29.4435 3.63666 28.8386 3.63666 28.0644V19.8386C3.63666 15.4354 7.62261 11.8306 12.5512 11.8306H17.6144C18.4493 11.8306 19.1495 11.2257 19.1495 10.4515C19.1495 9.67735 18.4493 9.07251 17.6144 9.07251Z" fill="#091B51"/>
<path d="M59.3072 9.07257C58.4723 9.07257 57.772 9.67741 57.772 10.4516C57.772 11.2258 58.4723 11.8306 59.3072 11.8306C63.8587 11.8306 67.5753 15.1693 67.5753 19.2581C67.5753 23.3468 63.8587 26.6855 59.3072 26.6855C54.7556 26.6855 51.039 23.3468 51.039 19.2581V2.63709C51.039 1.88709 50.3388 1.25806 49.5039 1.25806C48.669 1.25806 47.9688 1.88709 47.9688 2.63709V19.2581C47.9688 24.871 53.0589 29.4435 59.3072 29.4435C65.5554 29.4435 70.6456 24.871 70.6456 19.2581C70.6456 13.6452 65.5554 9.07257 59.3072 9.07257Z" fill="#091B51"/>
<path d="M112.361 26.6855H110.799C106.248 26.6855 102.531 23.3468 102.531 19.2581V2.63709C102.531 1.88709 101.858 1.25806 100.996 1.25806C100.134 1.25806 99.4609 1.88709 99.4609 2.63709V19.2581C99.4609 24.871 104.551 29.4435 110.799 29.4435H112.361C113.196 29.4435 113.897 28.8387 113.897 28.0645C113.897 27.2903 113.223 26.6855 112.361 26.6855Z" fill="#091B51"/>
<path d="M112.361 9.07251H107.109C106.274 9.07251 105.574 9.67735 105.574 10.4515C105.574 11.2257 106.248 11.8306 107.109 11.8306H112.361C113.196 11.8306 113.896 11.2257 113.896 10.4515C113.896 9.67735 113.223 9.07251 112.361 9.07251Z" fill="#EE4723"/>
<path d="M43.3604 13.6936C42.5255 13.6936 41.8253 14.2984 41.8253 15.0726V19.2581C41.8253 23.3468 38.1087 26.6855 33.5572 26.6855C29.0056 26.6855 25.289 23.3468 25.289 19.2581V15.0726C25.289 14.3226 24.5888 13.6936 23.7539 13.6936C22.919 13.6936 22.2188 14.2984 22.2188 15.0726V19.2581C22.2188 24.871 27.3089 29.4436 33.5572 29.4436C39.8054 29.4436 44.8956 24.871 44.8956 19.2581V15.0726C44.8956 14.3226 44.1953 13.6936 43.3604 13.6936Z" fill="#091B51"/>
<path d="M85.0259 8.83057C78.7777 8.83057 73.6875 13.4031 73.6875 19.0161C73.6875 24.629 73.6875 19.1128 73.6875 19.1612C73.6875 19.2096 73.6875 19.258 73.6875 19.3064C73.6875 24.9193 78.7777 29.4919 85.0259 29.4919C91.2742 29.4919 96.3643 24.9193 96.3643 19.3064C96.3643 13.6935 96.3643 19.2096 96.3643 19.1612C96.3643 19.1128 96.3643 19.0644 96.3643 19.0161C96.3643 13.4031 91.2742 8.83057 85.0259 8.83057ZM93.321 19.137C93.321 19.1854 93.321 19.2338 93.321 19.2822C93.321 23.3709 89.6044 26.7096 85.0528 26.7096C80.5013 26.7096 76.7847 23.3709 76.7847 19.2822C76.7847 15.1935 76.7847 19.1854 76.7847 19.137C76.7847 19.0886 76.7847 19.0402 76.7847 18.9919C76.7847 14.9031 80.5013 11.5644 85.0528 11.5644C89.6044 11.5644 93.321 14.9031 93.321 18.9919C93.321 23.0806 93.321 19.0886 93.321 19.137Z" fill="#091B51"/>
<path d="M33.5572 0.266113C27.3089 0.266113 22.2188 4.8387 22.2188 10.4516C22.2188 16.0645 22.919 11.8306 23.7539 11.8306C24.5888 11.8306 25.289 11.2258 25.289 10.4516C25.289 6.36289 29.0056 3.02418 33.5572 3.02418C38.1087 3.02418 41.8253 6.36289 41.8253 10.4516C41.8253 14.5403 42.5255 11.8306 43.3604 11.8306C44.1953 11.8306 44.8956 11.2258 44.8956 10.4516C44.8956 4.8387 39.8054 0.266113 33.5572 0.266113Z" fill="#7D88A5"/>
<path d="M85.0234 14.7581C84.1885 14.7581 83.4883 15.3629 83.4883 16.1371V22.1371C83.4883 22.8871 84.1616 23.5161 85.0234 23.5161C85.8852 23.5161 86.5585 22.9113 86.5585 22.1371V16.1371C86.5585 15.3871 85.8852 14.7581 85.0234 14.7581Z" fill="#7D88A5"/>
</svg>
