<svg width="185" height="30" viewBox="0 0 185 30" fill="none" xmlns="http://www.w3.org/2000/svg">
<path d="M21.7474 5V30H18.1354V21.5789C17.2324 22.381 16.1789 22.995 14.9749 23.4211C13.7709 23.8471 12.4791 24.0602 11.0995 24.0602C8.86704 24.0602 6.91052 23.6717 5.22992 22.8947C3.54932 22.1178 2.25752 21.015 1.35451 19.5865C0.451504 18.1579 0 16.4912 0 14.5865V13.985C0 12.0802 0.451504 10.4261 1.35451 9.02256C2.25752 7.59398 3.54932 6.49123 5.22992 5.71429C6.91052 4.93734 8.86704 4.54887 11.0995 4.54887C12.4791 4.54887 13.7834 4.77444 15.0125 5.22556C16.2416 5.67669 17.3327 6.31579 18.2859 7.14286L18.3988 5H21.7474ZM11.1371 20.7519C12.617 20.7519 13.9715 20.4887 15.2006 19.9624C16.4548 19.411 17.4331 18.6842 18.1354 17.782V10.7895C17.4331 9.88722 16.4548 9.17293 15.2006 8.64662C13.9715 8.1203 12.617 7.85714 11.1371 7.85714C8.82942 7.85714 7.01086 8.40852 5.68143 9.51128C4.37708 10.589 3.72491 12.0802 3.72491 13.985V14.5865C3.72491 16.4912 4.37708 17.995 5.68143 19.0977C7.01086 20.2005 8.82942 20.7519 11.1371 20.7519Z" fill="white"/>
<path d="M47.7451 5V23.609H44.3964L44.2459 21.203C42.3898 23.0576 39.9817 24.01 37.0219 24.0602C33.761 24.0602 31.2903 23.2581 29.6097 21.6541C27.9542 20.0251 27.1264 17.6441 27.1264 14.5113V5H30.7008V14.5113C30.7008 16.5163 31.2652 18.0576 32.394 19.1353C33.5478 20.213 35.2033 20.7519 37.3605 20.7519C38.8404 20.7519 40.1824 20.4135 41.3864 19.7368C42.6155 19.0601 43.5311 18.1579 44.1331 17.0301V5H47.7451Z" fill="white"/>
<path d="M76.4256 20.4135V23.609H73.9423C72.7132 23.609 71.6848 23.3709 70.8571 22.8947C70.0293 22.4185 69.4524 21.7419 69.1263 20.8647C68.1229 21.9424 66.9189 22.7444 65.5143 23.2707C64.1096 23.797 62.4541 24.0602 60.5477 24.0602C57.8638 24.0602 55.7944 23.5965 54.3395 22.6692C52.8847 21.7168 52.1573 20.3634 52.1573 18.609C52.1573 17.1053 52.7216 15.9023 53.8504 15C54.9792 14.0977 56.6347 13.5338 58.8169 13.3083L68.8629 12.2556C68.7877 10.8521 68.1982 9.78697 67.0945 9.06015C65.9908 8.33333 64.4106 7.96992 62.3537 7.96992C60.3721 7.96992 58.7919 8.30827 57.6129 8.98496C56.434 9.66165 55.8445 10.5639 55.8445 11.6917V11.8421H52.2701V11.6917C52.2701 10.2882 52.684 9.04762 53.5118 7.96992C54.3646 6.86717 55.5561 6.02757 57.0862 5.45113C58.6163 4.84962 60.3847 4.54887 62.3913 4.54887C65.577 4.54887 68.0477 5.25063 69.8035 6.65413C71.5594 8.05764 72.4373 10.0251 72.4373 12.5564V18.3459C72.4373 18.9975 72.638 19.5113 73.0393 19.8872C73.4407 20.2381 74.0176 20.4135 74.7701 20.4135H76.4256ZM60.4725 20.8647C62.5042 20.8647 64.2475 20.5514 65.7024 19.9248C67.1572 19.2732 68.2107 18.3584 68.8629 17.1805V15.188L59.6071 16.1654C58.3027 16.2907 57.3245 16.5539 56.6723 16.9549C56.0452 17.3559 55.7317 17.9073 55.7317 18.609C55.7317 20.1128 57.3119 20.8647 60.4725 20.8647Z" fill="white"/>
<path d="M89.7758 4.54887C93.0367 4.54887 95.4949 5.36341 97.1504 6.99248C98.831 8.59649 99.6713 10.9649 99.6713 14.0977V23.609H96.0969V14.0977C96.0969 12.0677 95.52 10.5263 94.3661 9.47368C93.2374 8.39599 91.5944 7.85714 89.4372 7.85714C87.9573 7.85714 86.6028 8.19549 85.3737 8.87218C84.1697 9.54887 83.2666 10.4511 82.6646 11.5789V23.609H79.0526V5H82.4013L82.5518 7.40601C84.408 5.55138 86.816 4.599 89.7758 4.54887Z" fill="white"/>
<path d="M111.688 8.15789V17.5564C111.688 18.4837 111.952 19.198 112.478 19.6992C113.005 20.1754 113.745 20.4135 114.698 20.4135H119.138V23.609H114.397C112.441 23.609 110.898 23.0827 109.769 22.0301C108.666 20.9774 108.114 19.5238 108.114 17.6692V8.15789H101.153V5H107.098C107.524 5 107.813 4.92481 107.963 4.77443C108.114 4.599 108.189 4.31078 108.189 3.90977V0H111.688V5H120.267V8.15789H111.688Z" fill="white"/>
<path d="M143.502 5V23.609H140.153L140.002 21.203C138.146 23.0576 135.738 24.01 132.778 24.0602C129.518 24.0602 127.047 23.2581 125.366 21.6541C123.711 20.0251 122.883 17.6441 122.883 14.5113V5H126.457V14.5113C126.457 16.5163 127.022 18.0576 128.15 19.1353C129.304 20.213 130.96 20.7519 133.117 20.7519C134.597 20.7519 135.939 20.4135 137.143 19.7368C138.372 19.0601 139.288 18.1579 139.89 17.0301V5H143.502Z" fill="white"/>
<path d="M175.631 4.54887C178.666 4.54887 180.987 5.36341 182.592 6.99248C184.197 8.59649 185 10.9273 185 13.985V23.609H181.388V13.985C181.388 12.005 180.874 10.4887 179.845 9.43609C178.817 8.38346 177.35 7.85714 175.443 7.85714C173.988 7.85714 172.634 8.20802 171.38 8.90977C170.151 9.61153 169.21 10.5388 168.558 11.6917C168.683 12.4937 168.746 13.2581 168.746 13.985V23.609H165.171V13.985C165.171 12.0301 164.657 10.5263 163.629 9.47368C162.6 8.39599 161.133 7.85714 159.227 7.85714C157.772 7.85714 156.442 8.20802 155.238 8.90977C154.034 9.58647 153.131 10.5013 152.529 11.6541V23.609H148.955V5H152.304L152.416 7.40601C153.319 6.4787 154.373 5.77694 155.577 5.30075C156.806 4.7995 158.135 4.54887 159.565 4.54887C161.421 4.54887 163.014 4.87469 164.344 5.52631C165.673 6.15288 166.702 7.0802 167.429 8.30827C168.407 7.10526 169.586 6.17794 170.966 5.52631C172.37 4.87469 173.926 4.54887 175.631 4.54887Z" fill="white"/>
</svg>
