<svg width="108" height="30" viewBox="0 0 108 30" fill="none" xmlns="http://www.w3.org/2000/svg">
<path d="M16.5416 9.07227H11.7865C5.5898 9.07227 0.53125 13.911 0.53125 19.8384V28.0642C0.53125 28.8142 1.16357 29.4432 1.97294 29.4432C2.78231 29.4432 3.41462 28.8384 3.41462 28.0642V19.8384C3.41462 15.4352 7.15795 11.8303 11.7865 11.8303H16.5416C17.3256 11.8303 17.9832 11.2255 17.9832 10.4513C17.9832 9.67711 17.3256 9.07227 16.5416 9.07227Z" fill="#091B51"/>
<path d="M55.6951 9.07233C54.911 9.07233 54.2534 9.67717 54.2534 10.4514C54.2534 11.2256 54.911 11.8304 55.6951 11.8304C59.9696 11.8304 63.46 15.1691 63.46 19.2578C63.46 23.3465 59.9696 26.6852 55.6951 26.6852C51.4206 26.6852 47.9302 23.3465 47.9302 19.2578V2.63684C47.9302 1.88684 47.2726 1.25781 46.4886 1.25781C45.7045 1.25781 45.0469 1.88684 45.0469 2.63684V19.2578C45.0469 24.8707 49.8272 29.4433 55.6951 29.4433C61.563 29.4433 66.3434 24.8707 66.3434 19.2578C66.3434 13.6449 61.563 9.07233 55.6951 9.07233Z" fill="#091B51"/>
<path d="M105.521 26.6852H104.054C99.78 26.6852 96.2896 23.3465 96.2896 19.2578V2.63684C96.2896 1.88684 95.6573 1.25781 94.8479 1.25781C94.0386 1.25781 93.4062 1.88684 93.4062 2.63684V19.2578C93.4062 24.8707 98.1866 29.4433 104.054 29.4433H105.521C106.306 29.4433 106.963 28.8385 106.963 28.0643C106.963 27.2901 106.331 26.6852 105.521 26.6852Z" fill="#091B51"/>
<path d="M105.522 9.07227H100.59C99.8061 9.07227 99.1484 9.67711 99.1484 10.4513C99.1484 11.2255 99.7808 11.8303 100.59 11.8303H105.522C106.306 11.8303 106.964 11.2255 106.964 10.4513C106.964 9.67711 106.332 9.07227 105.522 9.07227Z" fill="#EE4723"/>
<path d="M40.722 13.6934C39.9379 13.6934 39.2803 14.2982 39.2803 15.0724V19.2579C39.2803 23.3466 35.7899 26.6853 31.5154 26.6853C27.241 26.6853 23.7506 23.3466 23.7506 19.2579V15.0724C23.7506 14.3224 23.0929 13.6934 22.3089 13.6934C21.5248 13.6934 20.8672 14.2982 20.8672 15.0724V19.2579C20.8672 24.8708 25.6475 29.4434 31.5154 29.4434C37.3834 29.4434 42.1637 24.8708 42.1637 19.2579V15.0724C42.1637 14.3224 41.5061 13.6934 40.722 13.6934Z" fill="#091B51"/>
<path d="M79.8475 8.83057C73.9795 8.83057 69.1992 13.4031 69.1992 19.0161C69.1992 24.629 69.1992 19.1128 69.1992 19.1612C69.1992 19.2096 69.1992 19.258 69.1992 19.3064C69.1992 24.9193 73.9795 29.4919 79.8475 29.4919C85.7154 29.4919 90.4957 24.9193 90.4957 19.3064C90.4957 13.6935 90.4957 19.2096 90.4957 19.1612C90.4957 19.1128 90.4957 19.0644 90.4957 19.0161C90.4957 13.4031 85.7154 8.83057 79.8475 8.83057ZM87.6376 19.137C87.6376 19.1854 87.6376 19.2338 87.6376 19.2822C87.6376 23.3709 84.1472 26.7096 79.8728 26.7096C75.5983 26.7096 72.1079 23.3709 72.1079 19.2822C72.1079 15.1935 72.1079 19.1854 72.1079 19.137C72.1079 19.0886 72.1079 19.0402 72.1079 18.9919C72.1079 14.9031 75.5983 11.5644 79.8728 11.5644C84.1472 11.5644 87.6376 14.9031 87.6376 18.9919C87.6376 23.0806 87.6376 19.0886 87.6376 19.137Z" fill="#091B51"/>
<path d="M31.5154 0.266113C25.6475 0.266113 20.8672 4.8387 20.8672 10.4516C20.8672 16.0645 21.5248 11.8306 22.3089 11.8306C23.0929 11.8306 23.7506 11.2258 23.7506 10.4516C23.7506 6.36289 27.241 3.02418 31.5154 3.02418C35.7899 3.02418 39.2803 6.36289 39.2803 10.4516C39.2803 14.5403 39.9379 11.8306 40.722 11.8306C41.5061 11.8306 42.1637 11.2258 42.1637 10.4516C42.1637 4.8387 37.3834 0.266113 31.5154 0.266113Z" fill="#7D88A5"/>
<path d="M79.8479 14.7578C79.0639 14.7578 78.4062 15.3627 78.4062 16.1368V22.1368C78.4062 22.8868 79.0386 23.5159 79.8479 23.5159C80.6573 23.5159 81.2896 22.911 81.2896 22.1368V16.1368C81.2896 15.3868 80.6573 14.7578 79.8479 14.7578Z" fill="#7D88A5"/>
</svg>
